<?xml version="1.0" encoding="utf-8"?>
<!-- Generator: Adobe Illustrator 25.2.1, SVG Export Plug-In . SVG Version: 6.00 Build 0)  -->
<svg version="1.1" id="Banner" xmlns="http://www.w3.org/2000/svg" xmlns:xlink="http://www.w3.org/1999/xlink" x="0px" y="0px"
	 viewBox="0 0 1128.6 836.6" style="enable-background:new 0 0 1128.6 836.6;" xml:space="preserve">
<style type="text/css">
	.st0{fill:#FBF3E3;}
	.st1{clip-path:url(#SVGID_1_);}
	.st2{opacity:0.55;fill:#DF6CB8;enable-background:new    ;}
	.st3{opacity:0.55;fill:#B38BCB;enable-background:new    ;}
	.st4{fill:#B38BCB;}
	.st5{clip-path:url(#SVGID_2_);}
	.st6{fill:#DFDED5;}
	.st7{fill:#5E6696;}
	.st8{fill:#DAD8CD;}
	.st9{clip-path:url(#SVGID_3_);}
	.st10{fill:none;stroke:#FFFFFF;stroke-width:0.75;stroke-miterlimit:10;}
	.st11{fill:#FFFFFF;}
	.st12{clip-path:url(#SVGID_4_);}
	.st13{fill:#D0AA8C;}
	.st14{clip-path:url(#SVGID_5_);}
	.st15{fill:#6F88B8;}
	.st16{clip-path:url(#SVGID_6_);}
	.st17{fill:#3A250B;}
	.st18{fill:none;stroke:#3A250B;stroke-miterlimit:10;}
</style>
<g id="BACKGROUND">
	<rect y="0.5" class="st0" width="1128.5" height="836.1"/>
</g>
<g>
	<g>
		<defs>
			<rect id="SVGID_13_" y="0.5" width="1128.5" height="836.1"/>
		</defs>
		<clipPath id="SVGID_1_">
			<use xlink:href="#SVGID_13_"  style="overflow:visible;"/>
		</clipPath>
		<g class="st1">
			<path class="st2" d="M679.3,905.8c-120.1-15.6-244.8-18.7-362.3,18.7c-82.3,26.1-159.4,64.4-247.3,53.5
				C-132.7,953-206.7,596.8-7.6,501.2c40.4-19.3,85.6-21.9,127.5-7.6c40.3,14,74.6,42.8,108.5,70.4c58.7,48,123.3,95.6,196.9,99.2
				c72.3,3.6,144.2-36.2,215.1-20.8c61.4,13.4,110.3,67.8,135.1,130.5c7.8,19.8,13.8,40.8,13.2,62.4c-0.6,21.6-8.3,43.6-23.8,57.2
				C741.7,913.1,708.7,909.6,679.3,905.8z"/>
			<path class="st2" d="M1439,14.3c-60.5,156.3-108.7,323.2-109.3,494.8c-0.4,120.2,14.4,237.8-29.2,352.2
				c-100.5,263.8-523.4,236.2-558.1-66.4c-6.8-61.3,6.5-123.2,37.5-174.5c30.1-49.3,74.5-85.1,117.3-120.8
				c74.5-62,150.6-132.1,181-229.8c29.9-96.1,11.5-207.3,54.2-297.2c37-77.9,115-124.2,193.7-135.4c24.8-3.5,50.4-3.9,74.2,4.5
				c23.8,8.4,45.6,26.7,55.1,52.5C1469.5-67.1,1453.7-23.9,1439,14.3z"/>
			<path class="st3" d="M804.6-134.3c-137.1,10.5-278.7,6.4-409.8-44c-91.9-35.2-177-84.1-277.3-77
				c-231,16.3-335.5,422.8-115.1,545.3c44.7,24.6,95.9,30.4,144.1,16.6c46.6-13.7,87.1-44.9,127-74.6
				c69.5-51.7,145.4-102.6,229-102.3c82.1,0.4,161.5,50.8,242.7,37.2C815.7,155.1,874.2,95.2,906,24.5c10-22.3,18-46.3,18.6-71.1
				c0.6-24.8-6.9-50.9-23.7-67.5C875.8-138.9,838.2-136.9,804.6-134.3z"/>
			<path class="st4" d="M-53.6,1002.1c52.1,65.8,130,104.6,208.8,106c50.4,0.9,103.2-12.2,149.7,9.1c24.1,11,47.9,31.1,73.2,24.3
				c24.7-6.7,38.6-38,36.9-66.2c-1.7-28.1-15.2-53.5-28.7-77.4C324.5,888.2,161.3,540.8,25,555
				C-155.8,573.9-140.6,892.2-53.6,1002.1z"/>
		</g>
	</g>
</g>
<g>
	<g>
		<defs>
			<rect id="SVGID_15_" y="0.5" width="1128.5" height="836.1"/>
		</defs>
		<clipPath id="SVGID_2_">
			<use xlink:href="#SVGID_15_"  style="overflow:visible;"/>
		</clipPath>
		<g class="st5">
			<path class="st6" d="M418.5,804.2c8.4-16,17.6-32.3,31.6-42.2c8.2-5.8,17.6-9.1,26.2-14.3c7.1-4.6,13.8-9.8,20.1-15.7l38.1-33.2
				c23.3-20.3,46.9-40.8,74-53.9c27.2-13,58.8-17.9,86.4-5.9c12.3,5.3,23.3,13.7,34.1,22.2c39.7,31,78.7,64.3,109.2,106.2
				c30.5,41.9,52.2,93.7,52.6,147.6c0.2,22.9-4,47.1-17.5,64.5c-9.4,12.1-22.5,19.8-35.6,26.2c-99.8,49.1-214.3,38.4-322.2,20.1
				c-39.2-6.7-78.4-14.4-116.7-25.7c-14.9-4.4-32.6-9.7-44.4-21.5c-16.8-16.6-5.7-28.6,3-48.3C376.3,887.3,396.7,845.3,418.5,804.2z
				"/>
			<path class="st7" d="M981.3,196.7c-8-2.1-16-5-22.3-10.9c-16.7-15.4-15.9-44.3-28-64.5c-11.4-19-35-27.6-54.3-19.9
				c-11.4,4.6-21.1,14.1-32.8,17.1c-25.2,6.3-49.3-22.4-49.4-51c-0.1-28.6,17.6-54,38.4-70.8c23.9-19.4,53.3-30.6,82.9-30.4
				c58.6,0.4,114,43.9,171.7,32.7c12.4-2.4,24.5-7.3,36.9-8.5c12.4-1.2,26.5,2.4,34.1,13.5c9.3,13.7,6,33,1.9,49.5
				c-9.3,38.6-14,92.9-47.2,115.1C1073.3,195.6,1027.3,209.1,981.3,196.7z"/>
			<path class="st7" d="M1084.1,461.4c-11.7,26.9-13.5,58.8-28.8,83.4c-10.4,16.8-26,28.5-43.9,33.2c-31,8-63.5-7-95-2.4
				c-41,6-74.8,49.2-74.5,95.1c0.2,20.4,6,41.4,0,60.7c-12,38.3-65.3,49.9-69.5,90.3c-2.7,26.1,19,48.6,41.9,55.3
				c22.9,6.7,47.1,2.4,70.8,2.2c23.7-0.2,49.7,5.3,64.6,25.7c11.4,15.8,14.9,38.7,30.1,49.9c7.5,5.5,17,7.1,26,7
				c33.6-0.3,63.9-21.2,91.7-42.1c19.3-14.7,39.1-30.6,49.5-54c10.1-22.6,9.9-49,9.4-74.2c-1.5-87.6-3-175.1-4.5-262.7
				c-0.4-21.5,8.7-82.6-7-99.2C1129.2,413,1084.1,437.8,1084.1,461.4z"/>
			<path class="st8" d="M385-46.8c-7.7,19.5-22.8,33.9-37.1,48.1c-26.6,26.2-52.1,53.7-76.6,82.4c-22.4,26.3-44,53.8-69.9,75.7
				s-57,38.2-89.6,38.4c-15.7,0-31.2-3.6-46.3-8.2c-27.6-8.4-55.4-20.7-75.5-43.3C-29.5,124-40,93.9-50.1,64.7
				C-63.8,24.8-77.6-15.5-83.3-57.8c-3.5-26.2-3.3-55.1,10.5-76.6c16.5-25.5,46.5-40.6,74.7-39c73.5,4.2,153.9-9.7,237.1-22
				c34.9-5.1,87.3,2.5,115.3,29.7C381.5-139.2,400-84.9,385-46.8z"/>
			<path class="st7" d="M-30,295c3-4.7,6.2-9.6,10.9-12.1c5.1-2.7,11.2-2.2,16.8-1.2c46.2,8.4,87.3,46,103.6,94.8
				c5.3,16,8.2,33.4,5.5,50.2c-4.1,25.7-20.6,47.4-40.3,61.8c-19.7,14.4-42.4,22.5-64.8,30.4l-32.5,11.4
				c-53.8,19.1-87.7-19.3-74-80.6C-91.2,388.9-62.5,345.3-30,295z"/>
		</g>
	</g>
</g>
<g>
	<g>
		<defs>
			<rect id="SVGID_17_" y="0.5" width="1128.5" height="836.1"/>
		</defs>
		<clipPath id="SVGID_3_">
			<use xlink:href="#SVGID_17_"  style="overflow:visible;"/>
		</clipPath>
		<g class="st9">
			<path class="st10" d="M1151.2,417.9c1.7-12.5-11-21.4-22.2-23.8c-46.3-10.4-90.5,25-122.7,63.5s-61.8,83.3-106.1,101.7
				c-32.5,13.4-69.4,10.7-100.9,26.7c-30.2,15.9-51.6,47-57.4,83.6c-7.5,50.9,16.9,102,11.8,153.3c-3.3,31.2-17.3,59.9-39.1,79.9"/>
			<path class="st10" d="M667.2-93.6c-9.2,7.5-5.8,23.7,0.5,34.3c26.1,43.7,80,53.4,127.1,51.6C842-9.5,891.6-18.1,934.6,3.8
				c31.5,16,55.8,46.9,88.3,60.2c31.5,12.6,66.5,7.3,93.8-14.2c37.6-30.1,53-85.5,89.2-117.6c22.2-19.6,50.3-28.7,78.5-25.8"/>
			<path class="st10" d="M1159.7,335.7c-22.6-12.6-47.6-20.3-72.3-18c-24.7,2.3-49.2,15.3-64.6,38.4c-18.5,27.7-22.3,65.9-37,96.6
				c-25.3,52.7-78.4,75.6-128.4,84.6s-102.4,8.4-149,31.1c-49.4,24-88.7,73.2-112.6,130.7c-20.9,50.4-44.5,136.2-79.4,173.5"/>
			<path class="st0" d="M-51.6,735.3c22-12.7,48.6-19.1,73.2-22.2c21.6-2.7,43.4,0.6,63.6,9.6c40.5,18.2,72.6,53.8,90.5,97.7
				c10.7,26.3,15.8,54.1,18.8,82.6c0.2,2.3,3.5,2.4,3.3,0c-6-96.6-72.1-197.9-166.7-193c-14.6,0.8-29,4.4-43.1,8.1
				s-27.6,8.2-40.3,15.6C-53.2,734.3-52.4,735.8-51.6,735.3L-51.6,735.3z"/>
			<path class="st0" d="M186.8,902.3c4.9-3.5,0-17.6-1.1-22.2c-3.2-13.6-7.1-27-10.7-40.5c-0.4-1.5-2.5-0.8-2,0.6
				c2.8,9.6,5.6,19.3,8.3,28.8c1.5,5.2,9.9,28.6,5.1,32.2C185.9,901.9,186.3,902.7,186.8,902.3z"/>
			<path class="st0" d="M168.9,824.9c-5.7-13.5-14-25.4-24.5-34.8c-1.4-1.3-3.4,0.9-2,2.2c10.2,9.3,18.3,21.1,23.7,34.4
				C166.9,828.9,169.8,827,168.9,824.9L168.9,824.9z"/>
			<path class="st0" d="M133.8,777.3C85.8,729,14.4,719.8-42.1,755.3c-0.4,0.3-0.6,0.9-0.3,1.4l0,0c0,0.1,0.1,0.1,0.1,0.2l4.2,5.7
				c0.3,0.3,0.7,0.4,1.1,0.2c43.5-22.2,96.6-18.8,137,9.9c36.1,25.5,59.9,69.2,65.6,116.1c0.3,2.4,4.1,1.8,3.8-0.6
				c-6.5-60.7-45.4-114.5-97.7-134.1c-28.3-10.5-58.8-11.3-87.5-2.3c-6.3,2-12.6,6.1-18.9,7.5c-5,1.1-6-2.2-2-5
				c4.5-2.9,9.2-5.3,14.1-7.2c16.2-7.1,33.3-11,50.6-11.6c38.7-1.4,75.6,15,103.7,44.2C133.1,781.1,135.2,778.7,133.8,777.3
				L133.8,777.3z"/>
			<path class="st11" d="M-236.2,287.4c37.9-59.2,98.1-106.6,164.9-111c70.7-4.6,128,45.4,182,89c55.2,44.6,118.6,86.6,189.1,85.5
				c30.7-0.5,62.1-9.6,86.8-30.5c25.3-21.6,39.4-54.2,47.3-87.8c10.5-44.5,10.6-91.2,21.7-135.6c10-39.9,31-79.7,67-95.9
				c0.8-0.4,0.5-1.8-0.4-1.5c-65.9,29.3-73.1,118-81.7,185.2c-4.9,38.2-12.4,78.2-33.5,109.9c-21.7,32.4-56.6,49.5-92.2,53.4
				c-75,8.1-143.8-36.4-202.3-83.4C60.1,222.5,4.8,173.4-63.4,174.3c-70.5,1-134.1,50.5-173.9,112.5
				C-237.6,287.4-236.6,288.1-236.2,287.4L-236.2,287.4z"/>
		</g>
	</g>
</g>
<g>
	<g>
		<defs>
			<rect id="SVGID_19_" y="0.5" width="1128.5" height="836.1"/>
		</defs>
		<clipPath id="SVGID_4_">
			<use xlink:href="#SVGID_19_"  style="overflow:visible;"/>
		</clipPath>
		<g class="st12">
			<path class="st13" d="M628.3,2.1h-0.9c-1.2,0-2.3,1.1-2.3,2.5s1,2.5,2.3,2.5h1c1.2,0.2,2.4-0.7,2.7-2.1s-0.6-2.7-1.9-3
				c0,0,0,0-0.1,0C628.9,1.9,628.6,1.9,628.3,2.1L628.3,2.1L628.3,2.1z"/>
			<path class="st13" d="M643.5,16.4c1.1,0.1,2-0.8,2.1-2c0.1-1.2-0.7-2.3-1.8-2.4s-2,0.8-2.1,2c0,0.1,0,0.3,0,0.4
				C641.8,15.4,642.6,16.3,643.5,16.4z"/>
			<path class="st13" d="M635,30c0.5-0.1,0.8-0.6,0.8-1.1c-0.1-0.5-0.4-0.8-0.8-0.9c-0.5,0.1-0.8,0.6-0.8,1.1S634.5,29.9,635,30z"/>
			<path class="st13" d="M649.2,28.3h-0.9c-0.9,0-1.6,0.8-1.6,1.8c0,1,0.7,1.8,1.6,1.8h0.9c0.9,0,1.6-0.8,1.6-1.8
				C650.8,29.1,650.1,28.3,649.2,28.3z"/>
			<path class="st13" d="M643.5,42.3c0.8,0,1.5-0.8,1.5-1.7s-0.7-1.7-1.5-1.7c-0.8,0-1.5,0.8-1.5,1.7S642.7,42.3,643.5,42.3z"/>
			<path class="st13" d="M664.4,47.2h-0.9c-0.9,0.1-1.6,1-1.5,2c0.1,0.9,0.7,1.6,1.5,1.6h0.9c0.9-0.1,1.6-1,1.5-2
				C665.9,48,665.3,47.3,664.4,47.2L664.4,47.2z"/>
			<path class="st13" d="M668.2,57.9c4.1,0,4.1-7.1,0-7.1C664.1,50.8,664.1,57.9,668.2,57.9z"/>
			<path class="st13" d="M663.7,75.7c-1.2,1.1-2.1,2.4-2.6,4c-0.5,2.1,0.6,4.2,2.5,4.8c0.6,0.2,1.2,0.2,1.8,0
				c1.4-0.6,2.6-1.6,3.6-2.9c1.4-1.6,1.4-4.2,0-5.8C667.5,74.1,665.2,74.1,663.7,75.7z"/>
			<path class="st13" d="M686.3,73.2l-0.9,0.1c-1,0-2,0.5-2.7,1.2c-1.5,1.7-1.5,4.4,0,6c0.7,0.8,1.7,1.3,2.7,1.3l0.9,0.1
				c2.2,0,3.9-1.9,3.9-4.3l0,0l0,0C690.2,75.2,688.5,73.3,686.3,73.2z"/>
			<path class="st13" d="M684.3,93.3c0-2-1.5-3.6-3.3-3.6l0,0l0,0c-1.8,0-3.2,1.5-3.3,3.5l0,0v0.1c-0.1,1.8,1.1,3.3,2.7,3.5
				c1.6,0.1,3-1.2,3.1-3l0,0c0-0.2,0-0.3,0-0.5l-0.1,0.6c-0.2,0.5-0.5,0.9-0.7,1.4c-2.3,0.1-3,0.4-2.2,0.7l-1.3-0.8l-0.3-0.5
				c-0.1-0.5-0.3-1.1-0.4-1.7v0.1c0,1.8,1.3,3.2,2.9,3.2C683,96.5,684.3,95.1,684.3,93.3L684.3,93.3z"/>
			<path class="st13" d="M684.8,105.8l-0.9,0.3c-1,0.3-1.6,1.6-1.3,2.7c0.2,0.7,0.7,1.2,1.3,1.5l0.9,0.3c1.2,0.3,2.4-0.5,2.7-1.8
				s-0.4-2.6-1.5-2.9C685.6,105.7,685.2,105.7,684.8,105.8z"/>
			<path class="st13" d="M706.2,114.1l-2.9-0.9c-1.7-0.5-3.4,0.6-3.9,2.5c-0.4,1.9,0.6,3.8,2.2,4.4l2.8,1.3c1.8,0.5,3.6-0.6,4.1-2.6
				C709,116.7,708,114.6,706.2,114.1z"/>
			<path class="st13" d="M712,108.7c4.2,0,4.2-7.3,0-7.3C707.7,101.4,707.7,108.7,712,108.7z"/>
			<path class="st13" d="M718.7,129.5l-0.9,1.1c-0.4,0.6-0.4,1.4,0.1,1.9l0,0c0.5,0.5,1.2,0.5,1.6,0l0.9-1.1
				c0.4-0.6,0.4-1.4-0.1-1.9l0,0C719.9,129,719.2,129,718.7,129.5z"/>
			<path class="st13" d="M746.2,146.7c1.3,0,2.3-1.2,2.3-2.6c0-1.4-1-2.6-2.3-2.6c-1.3,0-2.3,1.2-2.3,2.6
				C743.9,145.5,744.9,146.7,746.2,146.7L746.2,146.7z"/>
			<path class="st13" d="M757.6,137.9c3.9,0,3.9-6.7,0-6.7c-1.7,0-3,1.5-3,3.4C754.6,136.5,755.9,137.9,757.6,137.9z"/>
			<path class="st13" d="M766.2,132.7c3.9,0,3.9-6.7,0-6.7S762.3,132.7,766.2,132.7z"/>
			<path class="st13" d="M765.2,132.6c5,0,5.1-8.7,0-8.7S760.1,132.6,765.2,132.6z"/>
			<path class="st13" d="M789,145.7c0.8-0.3,1.2-1.3,0.9-2.1c-0.2-0.5-0.5-0.9-0.9-1c-0.8,0.1-1.4,0.9-1.3,1.7
				C787.8,145,788.3,145.6,789,145.7z"/>
			<path class="st13" d="M797.4,121c5.1,0,5.1-8.7,0-8.7C792.5,112.3,792.5,121,797.4,121z"/>
			<path class="st13" d="M795.6,106.4c1.2,0.1,2.3-0.9,2.4-2.2c0.1-1.3-0.8-2.5-2-2.7c-1.2-0.1-2.3,0.9-2.4,2.2c0,0.1,0,0.2,0,0.4
				C793.7,105.3,794.5,106.3,795.6,106.4z"/>
			<path class="st13" d="M781.4,83.5c1.4,0,2.5-1.2,2.5-2.8c0-1.5-1.1-2.8-2.5-2.8c-1.4,0-2.5,1.2-2.5,2.8
				C778.9,82.3,780,83.5,781.4,83.5L781.4,83.5z"/>
			<path class="st13" d="M775.7,58.7c3.9,0,3.9-6.7,0-6.7C771.8,52,771.8,58.7,775.7,58.7z"/>
			<path class="st13" d="M783.3,42.3l0.9-2.2c0.5-1.2-1-2.3-1.7-1.1l-1,2.1C780.8,42.5,782.8,43.6,783.3,42.3L783.3,42.3z"/>
			<path class="st13" d="M771.9,16.1c1.5,0.1,2.8-1.1,2.9-2.8c0.1-1.7-1-3.1-2.5-3.2c-1.5-0.1-2.8,1.1-2.9,2.8c0,0.2,0,0.3,0,0.5
				C769.5,14.8,770.6,16,771.9,16.1z"/>
			<path class="st13" d="M748.1,22.8c5,0,5.1-8.7,0-8.7C743,14.1,743,22.8,748.1,22.8z"/>
			<path class="st13" d="M756.7,45.5c1.3,0,2.4-1.2,2.4-2.7c0-1.5-1.1-2.7-2.4-2.7c-1.3,0-2.4,1.2-2.4,2.7l0,0
				C754.2,44.3,755.3,45.5,756.7,45.5z"/>
			<path class="st13" d="M744.6,67v2.1c0,1.6,1.2,2.8,2.6,2.8s2.6-1.3,2.6-2.8V67c0-1.6-1.2-2.8-2.6-2.8
				C745.7,64.2,744.6,65.4,744.6,67z"/>
			<path class="st13" d="M765.2,94.1c4.4,0,4.4-7.6,0-7.6S760.8,94.1,765.2,94.1z"/>
			<path class="st13" d="M744.3,108.6c4.1,0,4.1-7.1,0-7.1C740.2,101.5,740.2,108.6,744.3,108.6z"/>
			<path class="st13" d="M724.1,77.1l-0.9,0.2c-0.9,0.2-1.7,0.8-2.2,1.7c-0.6,0.8-0.9,1.8-0.9,2.8c0,0.8,0.2,1.6,0.6,2.4
				c0.6,1.1,1.5,1.8,2.5,2.2l0.9,0.2c2.3,0.7,4.7-0.8,5.4-3.4c0.6-2.6-0.7-5.3-3.1-6C725.7,76.9,724.9,76.9,724.1,77.1L724.1,77.1z"
				/>
			<path class="st13" d="M731.9,55c1.4,0,2.5-1.3,2.5-2.8c0-1.6-1.1-2.8-2.5-2.8s-2.5,1.3-2.5,2.8c0,0,0,0,0,0.1
				C729.4,53.8,730.6,55,731.9,55z"/>
			<path class="st13" d="M703.4,39.8c5.1,0,5.1-8.9,0-8.9C698.3,30.9,698.3,39.8,703.4,39.8z"/>
			<path class="st13" d="M723.4,15.2l-1-1c-1.1-1.2-2.8-1.2-3.8,0s-1.1,3.1,0,4.3l0.9,1.1c1.1,1.2,2.8,1.2,3.9,0
				C724.5,18.3,724.5,16.4,723.4,15.2L723.4,15.2z"/>
			<path class="st13" d="M676.8,14c0.9,0,1.7-0.8,1.7-1.9c0-1-0.8-1.9-1.7-1.9s-1.7,0.8-1.7,1.9c0,0,0,0,0,0.1
				C675.1,13.1,675.9,14,676.8,14z"/>
			<path class="st13" d="M723.4,39.7c3.8,0,3.8-6.6,0-6.6C719.6,33.1,719.6,39.7,723.4,39.7z"/>
			<path class="st13" d="M709.1,69c4.7,0,4.7-8.1,0-8.1C704.4,60.9,704.4,69,709.1,69z"/>
			<path class="st13" d="M678.7,38.7c5.1,0,5.1-8.8,0-8.8C673.6,29.9,673.6,38.7,678.7,38.7z"/>
			<path class="st13" d="M696.8,5h-0.9c-1.9,0-3.4,1.7-3.5,3.9c0,2.1,1.6,3.8,3.5,3.8h0.9c1.9-0.1,3.4-2,3.3-4.2
				c-0.1-2-1.5-3.5-3.3-3.7V5z"/>
			<path class="st13" d="M734.8,5.8c1.6-0.1,2.8-1.7,2.7-3.5c-0.2-1.6-1.6-2.8-3.1-2.5c-1.5,0.2-2.5,1.8-2.3,3.4
				C732.3,4.7,733.4,5.8,734.8,5.8z"/>
			<path class="st13" d="M767.4-0.9l-1-1c-1.2-1.3-3.2-1.3-4.4,0c-1.2,1.4-1.2,3.5,0,4.9l0.9,1.1c1.3,1.4,3.3,1.4,4.5,0
				C768.6,2.6,768.6,0.5,767.4-0.9L767.4-0.9z"/>
			<path class="st13" d="M661.6-9.4h-2.9c-2.3,0-4.2,2.1-4.2,4.7s1.9,4.6,4.2,4.7h2.9c2.3,0,4.2-2.1,4.2-4.7
				C665.7-7.3,663.9-9.4,661.6-9.4z"/>
			<path class="st13" d="M712,0.3c4.7,0,4.7-8,0-8S707.3,0.3,712,0.3z"/>
			<path class="st13" d="M628.9-10.2l0.3,1c0.5,1.8,2.1,2.8,3.7,2.3l0,0c1-0.3,1.7-1.2,2-2.3l0.3-1c0.4-1.9-0.6-3.9-2.3-4.4
				c-0.3-0.1-0.5-0.1-0.8-0.1c-1.8,0-3.3,1.7-3.3,3.7l0,0C628.8-10.7,628.9-10.4,628.9-10.2z"/>
			<path class="st13" d="M601.7-7.9c1.1-0.1,1.9-1.2,1.8-2.4c-0.1-1.1-0.9-1.9-1.8-2c-1.1,0.1-1.9,1.2-1.8,2.4
				C599.9-8.8,600.7-8,601.7-7.9z"/>
			<path class="st13" d="M645.5,56.8h-0.9c-1.9-0.1-3.5,1.4-3.6,3.5c-0.1,2.1,1.3,3.9,3.1,4h1.4c1.9,0.2,3.5-1.4,3.7-3.5
				c0.1-2.1-1.3-3.9-3.2-4.1c0,0,0,0-0.1,0L645.5,56.8L645.5,56.8L645.5,56.8z"/>
			<path class="st13" d="M611.2,33c4.6,0,4.6-8,0-8C606.6,25,606.6,33,611.2,33z"/>
			<path class="st13" d="M612,4.8c-0.3,0.7-0.6,1.5-0.9,2.2c-0.9,1.8-0.4,4,1.2,5.1c1.6,1,3.6,0.4,4.6-1.3l0,0l1-2.1
				c0.9-1.8,0.4-4.1-1.2-5.1C615.1,2.6,613.1,3.2,612,4.8L612,4.8z"/>
			<path class="st13" d="M620.7,51c4.7,0,4.7-8.2,0-8.2C616,42.9,616,51,620.7,51z"/>
			<path class="st13" d="M723.4,146.4h-1.9c-2,0-3.6,1.8-3.6,4s1.6,4,3.6,4l0,0h1.9c2,0,3.6-1.8,3.6-4S725.4,146.4,723.4,146.4z"/>
			<path class="st13" d="M739.5,131.9c5.4,0,5.4-9.4,0-9.4C734.1,122.6,734.1,131.9,739.5,131.9z"/>
			<path class="st13" d="M771.5,102.9c0,0.4,0,0.7,0.1,1.1c0,1.2,0.5,2.3,1.2,3.2c1.6,1.7,4.1,1.7,5.7,0c0.7-0.9,1.1-2,1.2-3.2
				l0.1-1.1c0-1.3-0.4-2.5-1.2-3.4c-0.8-0.9-1.9-1.4-3-1.4s-2.2,0.5-3,1.4s-1.3,2.1-1.2,3.4H771.5z"/>
			<path class="st13" d="M764.1,147.1c-0.3,0.4-0.6,0.8-0.9,1.1c-1.6,1.8-1.5,4.7,0.2,6.5c1.5,1.6,3.9,1.7,5.5,0.1l0.1-0.1l1-1
				c1.7-1.8,1.7-4.8,0-6.7C768.3,145.1,765.8,145.2,764.1,147.1L764.1,147.1L764.1,147.1z"/>
			<path class="st13" d="M791.1,161.3c-0.8,0.8-1.3,1.8-1.7,2.9c-0.5,2.1,0.6,4.2,2.5,4.8c0.6,0.2,1.2,0.2,1.8,0
				c1-0.4,1.9-1.1,2.6-1.9c1.4-1.6,1.4-4.2,0-5.8C794.9,159.7,792.6,159.7,791.1,161.3z"/>
			<path class="st13" d="M810.7,143.3c4,0,4-6.9,0-6.9S806.7,143.3,810.7,143.3z"/>
			<path class="st13" d="M773.6,168.6l-1-1c-0.7-0.7-1.7-1.2-2.6-1.2c-2.1,0-3.7,1.9-3.7,4.2l0,0c0,1.1,0.4,2.2,1.1,2.9l0.9,1.2
				c1.5,1.7,3.9,1.7,5.4,0C775.1,172.9,775.1,170.3,773.6,168.6z"/>
			<path class="st13" d="M813.6,178.1c5.1,0,5.1-8.8,0-8.8S808.5,178.1,813.6,178.1z"/>
			<path class="st13" d="M791.5,191.8l1.1,0.8c2,1.3,4.7,0.6,5.9-1.7c0.8-1.5,0.8-3.3,0-4.8l-0.7-1.2c-1.2-2.4-4-3.2-6.2-1.8l0,0
				c-0.3,0.2-0.7,0.5-0.9,0.8c-1.8,2-1.8,5.1,0,7.1C790.9,191.2,791.2,191.5,791.5,191.8L791.5,191.8z"/>
			<path class="st13" d="M821.8,203.3v1.1c0,2.5,1.8,4.6,4.1,4.6c2.3,0,4.1-2,4.1-4.6v-1.1c0-2.6-1.9-4.6-4.2-4.6
				c-2.3,0-4.2,2.1-4.2,4.6H821.8z"/>
			<path class="st13" d="M837.4,162.4h-0.9c-2,0-3.6,1.8-3.6,4s1.6,4,3.6,4h0.9c2,0,3.6-1.8,3.6-4
				C840.9,164.2,839.3,162.4,837.4,162.4L837.4,162.4z"/>
			<path class="st13" d="M844.1,190.9c5.3,0,5.3-9.2,0-9.2S838.8,190.9,844.1,190.9z"/>
			<path class="st13" d="M862.2,198.5h-0.9c-1.8,0-3.3,1.6-3.3,3.6s1.5,3.6,3.3,3.7h0.9c1.8,0.1,3.4-1.4,3.5-3.4
				c0.1-2-1.3-3.8-3.1-3.9l0,0L862.2,198.5L862.2,198.5z"/>
			<path class="st13" d="M853.1,216.6l-0.9,1.2c-1.2,1.4-1.2,3.6,0,4.9c1.2,1.4,3.2,1.4,4.4,0l0,0l0,0l1-1c1-1.6,0.7-3.9-0.7-5
				C855.8,215.8,854.3,215.8,853.1,216.6L853.1,216.6z"/>
			<path class="st13" d="M834.6,231.7v-1.1c0-2.4-1.7-4.3-3.8-4.3c-2.1,0-3.8,1.9-3.8,4.3v1.1c0,2.4,1.7,4.3,3.9,4.3
				C832.9,236,834.6,234.1,834.6,231.7L834.6,231.7L834.6,231.7z"/>
			<path class="st13" d="M806,214.1l-0.9,0.1c-1.9,0-3.5,1.8-3.5,3.9c0,2.2,1.6,3.9,3.5,3.9l0,0l0.9,0.1c2,0,3.6-1.8,3.6-4
				C809.6,215.9,808,214.1,806,214.1L806,214.1z"/>
			<path class="st13" d="M781.4,207.8h-1.9c-1.9,0-3.5,1.7-3.5,3.9c0,2.1,1.6,3.9,3.5,3.9h1.9c1.9,0,3.5-1.7,3.5-3.9
				C784.8,209.6,783.3,207.8,781.4,207.8L781.4,207.8z"/>
			<path class="st13" d="M751.7,181.3l-1.8,1.2c-1.7,1.1-2.4,3.5-1.6,5.5c0.7,2,2.8,3.1,4.7,2.5l1.9-0.9c1-0.4,1.9-1.1,2.5-2.1
				c0.7-1.2,0.7-2.8,0.2-4.1c-0.9-2.3-3.3-3.4-5.4-2.4L751.7,181.3L751.7,181.3z"/>
			<path class="st13" d="M744.3,167.1c1.4,0.1,2.7-1.1,2.8-2.7c0.1-1.6-1-3-2.4-3.1c-1.4-0.1-2.7,1.1-2.8,2.7c0,0.1,0,0.3,0,0.4
				C742,165.8,743,167,744.3,167.1z"/>
			<path class="st13" d="M730.2,175.8l0.1-1.1c0-1.9-1.4-3.5-3.2-3.5c-1.7,0-3.1,1.6-3.1,3.5l0.1,1.1c0,1.9,1.4,3.4,3.1,3.4
				C728.9,179.2,730.2,177.7,730.2,175.8z"/>
			<path class="st13" d="M702.3,155.7l0.1,1.1c-0.3,1.8,0.8,3.6,2.4,3.9c1.6,0.3,3.2-0.9,3.5-2.7c0.1-0.4,0.1-0.8,0-1.2l0.1-1.1
				c0-1.9-1.4-3.4-3.1-3.4S702.3,153.8,702.3,155.7z"/>
			<path class="st13" d="M692.9,134.8c-0.6,1.1-1.2,2.1-1.8,3.2c-0.9,1.8-0.4,4.1,1.2,5.2c1.6,1,3.7,0.4,4.6-1.4l1.9-3.2
				c1-1.8,0.4-4.2-1.2-5.3C695.9,132.5,693.9,133.1,692.9,134.8L692.9,134.8z"/>
			<path class="st13" d="M676.8,139l-0.9,0.1c-0.9,0-1.8,0.4-2.5,1.1c-1.4,1.5-1.4,4,0,5.5l0,0c0.7,0.7,1.6,1.1,2.5,1.1l0.9,0.2
				c2,0,3.6-1.8,3.6-4.1l0,0l0,0C680.4,140.8,678.8,139,676.8,139L676.8,139z"/>
			<path class="st13" d="M666.3,124.8c4.5,0,4.5-7.8,0-7.8C661.8,117,661.8,124.8,666.3,124.8z"/>
			<path class="st13" d="M656.8,99.7c-0.6-0.7-1.4-1.3-2.2-1.7c-1.3-0.3-2.7,0.6-3,2c-0.1,0.4-0.1,0.9,0,1.3
				c0.3,0.9,0.8,1.8,1.5,2.4c1.1,1.2,2.7,1.2,3.8,0c1-1.2,1-3.1,0-4.2L656.8,99.7z"/>
			<path class="st13" d="M637.6,99.1l-1.9-0.9c-1.1-0.3-2.3,0.3-2.8,1.5c-0.5,1.2-0.1,2.7,1,3.4l1.8,1.2c1.2,0.8,2.8,0.3,3.4-1.1
				c0.7-1.4,0.2-3.1-1-3.8C637.9,99.3,637.8,99.2,637.6,99.1z"/>
			<path class="st13" d="M632.2,74.5c-1-0.2-2-0.2-3,0c-1.7,0.5-2.8,2.2-2.8,4.1c0,1.9,1.2,3.6,2.8,4.1c1,0.2,2,0.2,3,0
				c1.7-0.5,2.8-2.2,2.8-4.2c0-0.7-0.2-1.5-0.5-2.1C633.9,75.5,633.1,74.8,632.2,74.5L632.2,74.5z"/>
			<path class="st13" d="M612.1,78.2c4.4,0,4.4-7.6,0-7.6C607.8,70.6,607.8,78.2,612.1,78.2z"/>
			<path class="st13" d="M599.8,44.1l-1,0.1c-1.9,0.1-3.3,2-3.2,4.1c0.1,1.9,1.5,3.4,3.2,3.6l1,0.1c1.9-0.1,3.4-2,3.3-4.2
				C603,45.8,601.6,44.3,599.8,44.1z"/>
			<path class="st13" d="M589.6,18.1l-1-1c-1.2-1.3-3.1-1.3-4.3,0c-1.2,1.3-1.2,3.5,0,4.8l0.9,1.1c1.2,1.4,3.2,1.4,4.4,0
				C590.8,21.6,590.8,19.4,589.6,18.1L589.6,18.1z"/>
			<path class="st13" d="M585.5,23.9c5,0,5.1-8.7,0-8.7C580.5,15.1,580.5,23.9,585.5,23.9z"/>
			<path class="st13" d="M584.6,3.6c4.9,0,4.9-8.5,0-8.5C579.7-4.8,579.6,3.6,584.6,3.6z"/>
			<path class="st13" d="M577-15.2c5,0,5.1-8.7,0-8.7C571.9-24,571.9-15.2,577-15.2z"/>
			<path class="st13" d="M775.7-5.9c4.8,0,4.8-8.2,0-8.2C770.9-14.2,770.9-5.9,775.7-5.9z"/>
			<path class="st13" d="M790.2,9.1c0,0.3-0.1,0.7-0.2,1c-0.2,1.1,0,2.3,0.7,3.1c0.5,0.6,1.3,0.9,2,0.9c0.8,0,1.5-0.4,2-0.9
				c0.7-0.8,1-2,0.8-3.1c0-0.3-0.1-0.7-0.2-1c-0.4-1.6-1.9-2.6-3.3-2.1C791.1,7.3,790.4,8.1,790.2,9.1L790.2,9.1z"/>
			<path class="st13" d="M789.8,28.9l0.2,1c0.5,1.7,2.1,2.7,3.6,2.2c0.9-0.3,1.7-1.1,1.9-2.2c0-0.3,0.1-0.7,0.2-1
				c0.4-1.8-0.6-3.6-2.2-4c-1.6-0.4-3.2,0.7-3.6,2.5v0.1C789.7,27.9,789.7,28.4,789.8,28.9z"/>
			<path class="st13" d="M792.5,64.8l1.1,0.8c1.9,1.2,4.4,0.5,5.5-1.6c0.7-1.4,0.7-3.1,0-4.5l-0.8-1.2c-0.8-1.4-2.2-2.3-3.7-2.3
				c-1.1,0-2.2,0.5-3,1.4c-0.8,0.9-1.2,2.1-1.2,3.4C790.5,62.3,791.3,63.9,792.5,64.8z"/>
			<path class="st13" d="M797.4,79.7l-0.9,1.1c-1.5,1.7-1.5,4.5,0,6.2c1.5,1.7,4,1.7,5.6,0l1-1c1.5-1.8,1.4-4.7-0.3-6.4
				C801.3,78.1,799,78.1,797.4,79.7z"/>
			<path class="st13" d="M826,137.9c5.1,0,5.1-8.8,0-8.8S820.9,137.9,826,137.9z"/>
			<path class="st13" d="M845.9,156.6c4.7,0,4.7-8.2,0-8.2S841.2,156.6,845.9,156.6z"/>
			<path class="st13" d="M862.8,183.2v2.1c0,1.9,1.3,3.4,3,3.4c1.7,0,3-1.5,3-3.4v-2.1c0-1.9-1.4-3.4-3.1-3.4
				C864.1,179.9,862.7,181.4,862.8,183.2L862.8,183.2z"/>
			<path class="st13" d="M871.6,199.8l-0.9,0.2c-0.8,0-1.5,0.4-2.1,1c-0.6,0.6-0.9,1.5-0.9,2.4c0,1.8,1.4,3.3,3,3.4l0.9,0.1
				c1.7,0,3.1-1.6,3.1-3.5C874.7,201.6,873.3,199.6,871.6,199.8L871.6,199.8z"/>
			<path class="st13" d="M874.4,228.5c0.5-0.1,0.8-0.6,0.8-1.1c-0.1-0.5-0.4-0.8-0.8-0.9c-0.5,0.1-0.8,0.6-0.8,1.1
				C873.7,228.1,874,228.4,874.4,228.5z"/>
			<path class="st13" d="M851.6,246.1c0.3,0,0.5-0.3,0.5-0.6c0-0.3-0.2-0.6-0.5-0.6s-0.5,0.3-0.5,0.6l0,0
				C851.1,245.8,851.3,246.1,851.6,246.1z"/>
			<path class="st13" d="M833.6,257.9c0.9,0.1,1.7-0.7,1.8-1.7c0.1-1-0.6-1.9-1.5-2c-0.9-0.1-1.7,0.7-1.8,1.7c0,0.1,0,0.2,0,0.3
				C832.1,257.1,832.8,257.8,833.6,257.9z"/>
			<path class="st13" d="M795.6,251.7c1,0.1,1.9-0.7,1.9-1.8c0.1-1.1-0.6-2.1-1.6-2.2s-1.9,0.7-1.9,1.8c0,0.1,0,0.2,0,0.4
				C794.1,250.9,794.8,251.6,795.6,251.7z"/>
			<path class="st13" d="M774.7,235.2h-1.9c-1.4,0-2.6,1.3-2.6,2.9c0,1.6,1.1,2.8,2.6,2.8h1.9c1.4,0,2.6-1.3,2.6-2.9
				C777.3,236.5,776.1,235.2,774.7,235.2z"/>
			<path class="st13" d="M753.9,227.5c1,0,1.9-0.9,1.9-2.1s-0.8-2.1-1.9-2.1s-1.9,0.9-1.9,2.1S752.8,227.5,753.9,227.5z"/>
			<path class="st13" d="M729.1,206.8c5.4,0,5.4-9.3,0-9.3C723.7,197.6,723.8,206.8,729.1,206.8z"/>
			<path class="st13" d="M815.5,262.8c5.4,0,5.4-9.3,0-9.3C810.1,253.6,810.1,262.8,815.5,262.8z"/>
			<path class="st13" d="M838.5,273l0.1,1.1c0,1,0.4,2,1,2.8c0.7,0.7,1.6,1.2,2.5,1.2c1.9-0.1,3.5-1.8,3.6-4l0.1-1.1
				c0-2.2-1.6-4.1-3.6-4.1C840.1,269,838.5,270.8,838.5,273L838.5,273z"/>
			<path class="st13" d="M860.2,271.7c4.7,0,4.7-8,0-8C855.5,263.7,855.5,271.7,860.2,271.7z"/>
			<path class="st13" d="M871.9,252.6l1,1c0.9,1,2.3,1,3.2,0c0.9-1,0.9-2.6,0-3.6l-0.9-1.1c-0.9-1.1-2.3-1.1-3.3-0.2
				c-1,1-1,2.6-0.2,3.6C871.7,252.5,871.8,252.6,871.9,252.6L871.9,252.6z"/>
			<path class="st13" d="M887.7,231c5.3,0,5.3-9.2,0-9.2C882.4,222,882.5,231,887.7,231z"/>
			<path class="st0" d="M223.9,616.8c1.2,0,2.3-1.1,2.3-2.5s-1-2.5-2.3-2.5c-1.2,0-2.3,1.1-2.3,2.5
				C221.7,615.6,222.7,616.8,223.9,616.8z"/>
			<path class="st0" d="M236.9,630.7c1,0,1.7-0.9,1.7-1.9c0-1.1-0.8-1.9-1.7-1.9c-1,0-1.7,0.9-1.7,1.9
				C235.2,629.8,235.9,630.7,236.9,630.7L236.9,630.7z"/>
			<path class="st0" d="M237.8,631.2c1.2,0,2.3-1.1,2.3-2.5c0-1.4-1-2.5-2.3-2.5c-1.2,0-2.3,1.1-2.3,2.5
				C235.5,630.1,236.6,631.2,237.8,631.2z"/>
			<path class="st0" d="M223,629.9c0.6,0,1.1-0.5,1.1-1.2c0-0.7-0.5-1.2-1.1-1.2s-1.1,0.5-1.1,1.2
				C221.9,629.4,222.4,629.9,223,629.9L223,629.9z"/>
			<path class="st0" d="M222.2,645.2l0.9-1.1c0.5-0.6,0.5-1.6,0-2.2c-0.5-0.6-1.4-0.6-1.9,0c-0.3,0.3-0.6,0.7-1,1
				C218.8,644.3,220.9,646.7,222.2,645.2L222.2,645.2z"/>
			<path class="st0" d="M220.2,668c0.6,0,1.1-0.6,1.1-1.2c0-0.7-0.5-1.2-1.1-1.2c-0.6,0-1.1,0.6-1.1,1.2l0,0
				C219.1,667.4,219.6,668,220.2,668z"/>
			<path class="st0" d="M237.8,688.8c1.2,0.2,2.4-0.7,2.6-2.1s-0.6-2.7-1.9-2.9c-1.2-0.2-2.4,0.7-2.6,2.1c0,0.3,0,0.6,0,0.8
				C236.1,687.8,236.9,688.6,237.8,688.8z"/>
			<path class="st0" d="M251.9,685.2v-0.6c0.2-3-4-3-4.2,0v0.6C247.5,688.3,252.2,688.3,251.9,685.2l0.1-0.6c-0.2-3-4.4-3-4.2,0v0.6
				c0,1.3,0.9,2.3,2.1,2.3C251,687.5,251.9,686.5,251.9,685.2z"/>
			<path class="st0" d="M240.6,665.5c1.4,0,2.6-1.3,2.6-2.9c0-1.6-1.2-2.9-2.6-2.9s-2.6,1.3-2.6,2.9S239.2,665.5,240.6,665.5
				L240.6,665.5z"/>
			<path class="st0" d="M263.8,664.6c1.5,0.1,2.8-1.1,2.9-2.8c0.1-1.7-1-3.1-2.5-3.3c-1.5-0.2-2.8,1.1-2.9,2.8c0,0.2,0,0.3,0,0.5
				C261.3,663.3,262.4,664.5,263.8,664.6z"/>
			<path class="st0" d="M266.5,687.2c1.5,0.1,2.8-1.1,2.9-2.8c0.1-1.7-1-3.1-2.5-3.3c-1.5-0.1-2.8,1.1-2.9,2.8c0,0.2,0,0.3,0,0.5
				C264.1,685.9,265.2,687.1,266.5,687.2z"/>
			<path class="st0" d="M254.5,709c1.6,0.1,2.9-1.2,3-2.9c0.1-1.7-1.1-3.2-2.6-3.4c-1.5-0.2-2.9,1.2-3,2.9c0,0.2,0,0.3,0,0.5
				C252,707.6,253.1,708.8,254.5,709z"/>
			<path class="st0" d="M226.7,718c0.9,0.1,1.8-0.6,1.9-1.7c0.1-1-0.6-2-1.5-2.1s-1.8,0.6-1.9,1.7c0,0.1,0,0.3,0,0.4
				C225.3,717.2,225.9,717.9,226.7,718z"/>
			<path class="st0" d="M220.3,694.4c0-0.4,0-0.7-0.1-1c-0.1-1.7-1.4-3-3-2.8c-1.4,0.1-2.4,1.3-2.5,2.8c0,0.4,0,0.7-0.1,1
				c-0.1,1.8,1.1,3.3,2.6,3.4c1.6,0.1,2.9-1.2,3.1-2.9C220.3,694.7,220.3,694.6,220.3,694.4L220.3,694.4z"/>
			<path class="st0" d="M200.9,707.8v1c0,1.6,1.2,3,2.7,3c1.5,0,2.7-1.3,2.7-3v-1c0-1.6-1.2-3-2.7-3
				C202.1,704.9,200.9,706.2,200.9,707.8L200.9,707.8z"/>
			<path class="st0" d="M193.4,686.9c1.4,0,2.5-1.2,2.5-2.7s-1.1-2.7-2.5-2.7s-2.5,1.2-2.5,2.7S192,686.9,193.4,686.9L193.4,686.9z"
				/>
			<path class="st0" d="M181.4,681.8c1.4,0.1,2.6-1,2.7-2.6s-0.9-2.9-2.3-3c-1.4-0.1-2.6,1-2.7,2.6c0,0.1,0,0.3,0,0.4
				C179.1,680.6,180.1,681.7,181.4,681.8z"/>
			<path class="st0" d="M203.6,667.6c1.4,0,2.6-1.3,2.6-2.9s-1.2-2.9-2.6-2.9c-1.4,0-2.6,1.3-2.6,2.9l0,0
				C201,666.3,202.2,667.5,203.6,667.6z"/>
			<path class="st0" d="M186.9,657.4c1.5,0.1,2.8-1.1,2.9-2.8c0.1-1.7-1-3.1-2.5-3.3c-1.5-0.1-2.8,1.1-2.9,2.8c0,0.2,0,0.3,0,0.5
				C184.5,656.1,185.6,657.3,186.9,657.4z"/>
			<path class="st0" d="M203.6,638.1c1.1,0.1,2.1-0.8,2.2-2.1c0.1-1.2-0.7-2.3-1.9-2.4c-1.2-0.1-2.1,0.8-2.2,2.1c0,0.1,0,0.3,0,0.4
				C201.8,637.1,202.6,638,203.6,638.1z"/>
			<path class="st0" d="M190.6,625.4h0.9c1.4,0,2.6-1.3,2.6-2.9c0-1.6-1.2-2.9-2.6-2.9l0,0h-0.9c-1.4,0-2.5,1.3-2.5,2.8
				C188.1,624,189.2,625.3,190.6,625.4L190.6,625.4z"/>
			<path class="st0" d="M210.1,611.4c1.1,0,2.1-1,2.1-2.3c0-1.3-0.9-2.3-2.1-2.3l0,0l0,0c-1.1,0-2.1,1-2.1,2.3
				C208,610.4,208.9,611.4,210.1,611.4z"/>
			<path class="st0" d="M219.1,595.8v1c0,1.3,0.9,2.3,2.1,2.3c1.1,0,2.1-1,2.1-2.3l0,0l0,0v-1c-0.1-1.3-1.1-2.2-2.3-2.1
				C219.9,593.7,219.1,594.6,219.1,595.8L219.1,595.8z"/>
			<path class="st0" d="M235.3,591.6l0.1,1c0,1.5,1.1,2.7,2.5,2.7c1.4,0,2.4-1.2,2.4-2.7l0.1-1c0-1.6-1.1-2.8-2.5-2.8
				C236.5,588.8,235.3,590,235.3,591.6z"/>
			<path class="st0" d="M253.1,592.6v1c0,1.4,1,2.5,2.3,2.5c1.2,0,2.3-1.1,2.3-2.5v-1c0.1-1.4-0.8-2.7-2.1-2.8
				c-1.3-0.1-2.4,0.9-2.5,2.4C253.1,592.3,253.1,592.5,253.1,592.6L253.1,592.6L253.1,592.6z"/>
			<path class="st0" d="M244.4,613.2l0.1,1c0,1.6,1.2,2.9,2.6,2.9c1.4,0,2.6-1.3,2.6-2.9c0-0.4,0-0.7,0.1-1c0-1.7-1.2-3-2.7-3l0,0
				l0,0C245.6,610.2,244.4,611.6,244.4,613.2L244.4,613.2L244.4,613.2z"/>
			<path class="st0" d="M274.9,615.9c1.2,0.3,2.5-0.6,2.7-2c0.2-1.4-0.6-2.7-1.8-3s-2.5,0.6-2.7,2c-0.1,0.3-0.1,0.7,0,1
				C273.3,614.9,274,615.7,274.9,615.9z"/>
			<path class="st0" d="M273.5,597.8v1c0.1,1.4,1.2,2.4,2.4,2.3c1.1-0.1,1.9-1.1,2-2.3v-1c0-1.4-1-2.5-2.3-2.5
				c-1.2,0-2.2,1.1-2.3,2.5H273.5z"/>
			<path class="st0" d="M291.1,621.5v1.1c0,1.4,1,2.5,2.3,2.5s2.3-1.1,2.3-2.5v-1c0-1.4-1-2.5-2.3-2.5S291.1,620.1,291.1,621.5
				L291.1,621.5z"/>
			<path class="st0" d="M261,637.3c4.1,0,4.1-7.2,0-7.2C256.8,630.3,256.8,637.3,261,637.3z"/>
			<path class="st0" d="M283.2,647.9c1.4,0.1,2.6-1,2.7-2.6c0.1-1.6-0.9-2.9-2.3-3c-1.4-0.1-2.6,1-2.7,2.6c0,0.1,0,0.3,0,0.4
				C281,646.7,282,647.8,283.2,647.9z"/>
			<path class="st0" d="M299.9,651.5c1.1,0.1,2.1-0.8,2.2-2c0.1-1.2-0.7-2.3-1.8-2.4s-2.1,0.8-2.2,2c0,0.1,0,0.3,0,0.4
				C298.1,650.5,298.9,651.4,299.9,651.5z"/>
			<path class="st0" d="M286.9,676.4c4,0,4-7,0-7C282.9,669.5,282.9,676.4,286.9,676.4z"/>
			<path class="st0" d="M310,676.3c-0.3,0-0.6,0-0.9,0c-1.4,0-2.5,1.3-2.5,2.8c0,1.6,1.1,2.8,2.5,2.8c0.3,0,0.6,0,0.9,0
				c1.4,0,2.5-1.3,2.5-2.8C312.5,677.6,311.4,676.3,310,676.3z"/>
			<path class="st0" d="M281.4,694.4v1c0,1.6,1.2,3,2.7,3s2.7-1.3,2.7-3l0,0v-1c0-1.7-1.2-3-2.7-3l0,0l0,0
				C282.6,691.5,281.4,692.8,281.4,694.4z"/>
			<path class="st0" d="M290.6,716.9c1.4,0,2.6-1.3,2.6-2.9c0-1.6-1.2-2.9-2.6-2.9c-1.4,0-2.6,1.3-2.6,2.9l0,0
				C288,715.7,289.2,716.9,290.6,716.9z"/>
			<path class="st0" d="M269.4,730c1.3,0.1,2.4-1,2.5-2.4c0.1-1.4-0.9-2.7-2.2-2.8c-1.3-0.1-2.4,1-2.5,2.4c0,0.1,0,0.3,0,0.4
				C267.3,728.9,268.2,729.9,269.4,730z"/>
			<path class="st0" d="M246.2,733.1c1.3,0,2.3-1.2,2.3-2.6c0-1.4-1-2.6-2.3-2.6c-1.3,0-2.3,1.2-2.3,2.6l0,0
				C243.8,731.9,244.9,733.1,246.2,733.1L246.2,733.1z"/>
			<path class="st0" d="M234.1,737.1h-0.9c-1.3,0.1-2.3,1.4-2.2,2.9c0.1,1.3,1,2.3,2.2,2.4h0.9c1.3-0.1,2.3-1.4,2.2-2.9
				C236.3,738.2,235.3,737.2,234.1,737.1L234.1,737.1z"/>
			<path class="st0" d="M212.2,728.4l-0.1-1c0.1-1.2-0.7-2.4-1.8-2.5c-1.1-0.1-2.1,0.8-2.2,2c0,0,0,0,0,0.1c0,0.1,0,0.3,0,0.4
				l-0.1,1c-0.1,1.3,0.8,2.4,1.9,2.6c1.2,0.1,2.2-0.9,2.3-2.2C212.2,728.7,212.2,728.5,212.2,728.4z"/>
			<path class="st0" d="M196.4,729.5v-1c-0.1-1.3-1.1-2.2-2.3-2.1c-1,0.1-1.8,1-1.9,2.1v1c0.1,1.3,1.1,2.2,2.3,2.1
				C195.5,731.6,196.3,730.7,196.4,729.5z"/>
			<path class="st0" d="M186,702.8l-1.9,0.1c-1.4,0-2.5,1.3-2.6,2.8c0,1.6,1.2,2.8,2.6,2.8l1.9,0.1c1.5,0.1,2.7-1.1,2.8-2.7
				c0.1-1.6-1-3-2.4-3.2L186,702.8L186,702.8z"/>
			<path class="st0" d="M168.4,699.3c1.4,0,2.5-1.2,2.5-2.7c0-1.5-1.1-2.7-2.5-2.7c-1.4,0-2.5,1.2-2.5,2.7
				C165.9,698.1,167,699.3,168.4,699.3L168.4,699.3z"/>
			<path class="st0" d="M168.4,666.1c1.2,0.1,2.3-0.9,2.4-2.3c0.1-1.4-0.8-2.6-2-2.7c-1.2-0.1-2.3,0.9-2.4,2.3c0,0.1,0,0.3,0,0.4
				C166.4,665.1,167.3,666,168.4,666.1z"/>
			<path class="st0" d="M168.4,638.9c1.5,0.1,2.8-1.1,3-2.8c0.1-1.7-1-3.2-2.5-3.3s-2.8,1.1-3,2.8c0,0.2,0,0.3,0,0.5
				C165.9,637.6,167,638.8,168.4,638.9z"/>
			<path class="st0" d="M183.2,610.8c1.4,0,2.5-1.2,2.5-2.7c0-1.5-1.1-2.7-2.5-2.7c-1.4,0-2.5,1.2-2.5,2.7
				C180.7,609.6,181.8,610.8,183.2,610.8L183.2,610.8z"/>
			<path class="st0" d="M194.2,595.6l-0.9,1.1c-1,1.2-1,3,0,4.2c1.1,1.1,2.7,1.1,3.8,0l1-1c1-1.3,0.9-3.2-0.2-4.3
				C196.8,594.6,195.3,594.6,194.2,595.6z"/>
			<path class="st0" d="M207.4,586.4l0.8,1.1c1,1.1,2.6,1.1,3.5,0c1-1.1,1-2.9,0-3.9l-1-0.9c-0.9-1-2.4-1-3.4,0
				C206.6,583.7,206.6,585.3,207.4,586.4z"/>
			<path class="st0" d="M234.1,572.8h-0.9c-1.2,0.1-2.1,1.3-2,2.7c0.1,1.2,0.9,2.2,2,2.3l0.9-0.1c1.2,0,2.1-1.1,2.1-2.4
				C236.3,573.9,235.3,572.9,234.1,572.8L234.1,572.8L234.1,572.8z"/>
			<path class="st0" d="M253.6,576.1c1.5,0,2.7-1.3,2.7-3c0-1.7-1.2-3-2.7-3c-1.5,0-2.7,1.3-2.7,3
				C250.9,574.8,252.1,576.1,253.6,576.1L253.6,576.1z"/>
			<path class="st0" d="M273.3,574.5l-1,0.9c-0.9,1-0.9,2.7,0,3.7s2.4,1,3.3,0l0.8-1.1c0.9-1,0.9-2.5,0-3.5
				C275.6,573.5,274.2,573.5,273.3,574.5z"/>
			<path class="st0" d="M289,596.7v1c0,1.6,1.2,2.8,2.6,2.8s2.6-1.3,2.6-2.8l0,0v-1c0-1.6-1.1-2.8-2.5-2.8
				C290.3,593.9,289,595.2,289,596.7L289,596.7z"/>
			<path class="st0" d="M300.8,603.4c1.2,0.2,2.4-0.7,2.6-2.1c0.2-1.4-0.6-2.7-1.9-2.9c-1.3-0.2-2.4,0.7-2.6,2.1c0,0.3,0,0.6,0,0.8
				C299.1,602.4,299.8,603.2,300.8,603.4z"/>
			<path class="st0" d="M301.7,604.4c1.2,0,2.3-1.1,2.3-2.5c0-1.4-1-2.5-2.3-2.5c-1.2,0-2.3,1.1-2.3,2.5
				C299.5,603.3,300.5,604.4,301.7,604.4z"/>
			<path class="st0" d="M305.1,618c-0.5,0.5-0.7,1.1-0.8,1.8c-0.3,1.3,0.4,2.6,1.6,3c1.2,0.4,2.4-0.4,2.7-1.7c0.1-0.4,0.1-0.9,0-1.3
				c-0.1-0.7-0.4-1.3-0.8-1.8C306.9,617.2,305.8,617.2,305.1,618z"/>
			<path class="st0" d="M314.7,640.4l0.9-0.1c1.2,0,2.1-1.1,2.2-2.4c0-1.3-1-2.4-2.2-2.4l-0.9-0.1c-1.2,0-2.3,1.1-2.3,2.5
				C312.4,639.3,313.4,640.4,314.7,640.4L314.7,640.4z"/>
			<path class="st0" d="M317.5,657.9c1.2,0.1,2.3-0.9,2.4-2.2c0.1-1.3-0.8-2.5-2-2.7c-1.2-0.1-2.3,0.9-2.4,2.2c0,0.1,0,0.3,0,0.4
				C315.6,656.8,316.5,657.8,317.5,657.9z"/>
			<path class="st0" d="M324.8,666.8l0.1,1c0.1,1.1,1,2,2,1.9c0.9-0.1,1.6-0.9,1.7-1.9v-1C328.8,664,324.6,664,324.8,666.8
				L324.8,666.8z"/>
			<path class="st0" d="M325.8,687.3c1.6,0.1,2.9-1.2,3-2.9c0.1-1.7-1.1-3.2-2.6-3.4c-1.6-0.1-2.9,1.2-3,2.9c0,0.2,0,0.3,0,0.5
				C323.3,685.9,324.4,687.2,325.8,687.3z"/>
			<path class="st0" d="M320.2,699.4c0.9,0.1,1.7-0.7,1.7-1.7c0.1-1-0.6-1.8-1.5-1.9s-1.7,0.7-1.7,1.7c0,0.1,0,0.2,0,0.2
				C318.8,698.6,319.4,699.3,320.2,699.4z"/>
			<path class="st0" d="M306.6,699.7v1c-0.1,1.6,0.9,2.9,2.3,3c1.4,0.1,2.6-1,2.7-2.6l0,0c0-0.1,0-0.3,0-0.4v-1
				c0.1-1.6-0.9-2.9-2.3-3c-1.4-0.1-2.6,1-2.7,2.6C306.6,699.4,306.6,699.5,306.6,699.7z"/>
			<path class="st0" d="M311.8,720.2l-0.8,1.1c-1,1.1-1,3,0,4.1s2.7,1.1,3.7,0l0,0l0,0l1-0.9c1.1-1.1,1.2-3.1,0.2-4.3
				c-1-1.3-2.8-1.3-3.9-0.2l0,0L311.8,720.2L311.8,720.2z"/>
			<path class="st0" d="M297.1,727.9h-0.9c-1.2,0-2.3,1.1-2.3,2.5c0,1.4,1,2.5,2.3,2.5h0.9c1.3,0.1,2.4-0.9,2.5-2.4
				c0.1-1.5-0.8-2.7-2.1-2.8h-0.4V727.9z"/>
			<path class="st0" d="M284.4,737.9l-0.9,1.1c-0.9,1-0.9,2.6,0,3.6c0.9,1,2.3,1,3.2,0l0,0l0,0l0.9-1c0.9-1,0.9-2.6,0-3.6l0,0
				C286.8,736.9,285.3,736.9,284.4,737.9z"/>
			<path class="st0" d="M270.2,750.9h-1.9c-1.1,0.1-1.9,1.2-1.8,2.4c0.1,1.1,0.9,1.9,1.8,2h1.9c1.1-0.1,1.9-1.2,1.8-2.4
				C272,751.8,271.2,751,270.2,750.9L270.2,750.9z"/>
			<path class="st0" d="M256.3,754.7c1.2,0.2,2.4-0.8,2.5-2.2c0.1-1.4-0.8-2.6-2-2.8c-1.2-0.2-2.4,0.8-2.5,2.2c0,0.2,0,0.4,0,0.6
				C254.5,753.6,255.3,754.5,256.3,754.7z"/>
			<path class="st0" d="M238.8,757.5h-0.9c-1.5,0-2.6,1.3-2.6,2.9c0,1.6,1.2,2.9,2.6,2.9h0.9c1.4,0,2.6-1.3,2.6-2.9
				S240.2,757.5,238.8,757.5L238.8,757.5L238.8,757.5z"/>
			<path class="st0" d="M223.9,759.8c1.2,0.2,2.4-0.7,2.6-2.1c0.2-1.4-0.6-2.7-1.9-2.9c-1.2-0.2-2.4,0.7-2.6,2.1c0,0.3,0,0.6,0,0.8
				C222.2,758.8,223,759.6,223.9,759.8z"/>
			<path class="st0" d="M214.7,752.4c1.2,0.1,2.2-0.9,2.3-2.2s-0.8-2.4-1.9-2.5c-1.2-0.1-2.2,0.9-2.3,2.2c0,0.1,0,0.3,0,0.4
				C212.8,751.4,213.6,752.3,214.7,752.4z"/>
			<path class="st0" d="M193.4,750.4c1.2,0,2.2-1.1,2.2-2.4c0-1.3-1-2.4-2.2-2.4c-1.2,0-2.1,1.1-2.2,2.4
				C191.2,749.3,192.2,750.4,193.4,750.4L193.4,750.4z"/>
			<path class="st0" d="M173.9,737.2c1.3,0.1,2.4-0.9,2.5-2.4c0.1-1.4-0.8-2.7-2.1-2.8c-1.3-0.1-2.4,0.9-2.5,2.4c0,0.1,0,0.3,0,0.4
				C171.9,736.1,172.8,737.1,173.9,737.2z"/>
			<path class="st0" d="M174.8,716.2v-1c0-1.1-0.8-2.1-1.8-2.1s-1.9,0.9-1.9,2.1l0,0v1c0,1.1,0.8,2,1.8,2
				C174,718.3,174.8,717.3,174.8,716.2L174.8,716.2z"/>
			<path class="st0" d="M156.3,704.5h-0.9c-1.1,0-2,1-2,2.3s0.9,2.3,2,2.3h0.9C159,709.3,159,704.3,156.3,704.5L156.3,704.5z"/>
			<path class="st0" d="M160.1,685.9c0.8,0,1.5-0.8,1.5-1.7s-0.7-1.7-1.5-1.7s-1.5,0.8-1.5,1.7S159.2,685.9,160.1,685.9z"/>
			<path class="st0" d="M153.5,668.8c-0.3-0.3-0.6-0.7-1-1c-1-1.1-2.6-1.1-3.6,0c-1,1.1-1,2.9,0,4l0,0l0.9,1.1
				c1.1,1,2.7,0.9,3.7-0.3C154.3,671.5,154.3,669.9,153.5,668.8L153.5,668.8z"/>
			<path class="st0" d="M156.6,652.3c0-0.7,0-1.4-0.1-2.1c0-0.6-0.5-1.2-1-1.2c-0.6,0-1,0.5-1,1.2c0,0.7-0.1,1.4-0.1,2.1
				C154.2,654,156.7,654,156.6,652.3z"/>
			<path class="st0" d="M154.9,617.8l-0.9,1.1c-0.7,0.9-0.6,2.3,0.2,3.1c0.7,0.7,1.8,0.7,2.6,0l1-1
				C159.7,619.1,156.7,615.7,154.9,617.8z"/>
			<path class="st0" d="M165.6,614.7c1.2,0,2.3-1.1,2.3-2.5s-1-2.5-2.3-2.5l0,0c-1.2,0-2.3,1.1-2.3,2.5S164.4,614.7,165.6,614.7z"/>
			<path class="st0" d="M174.9,597.1c1.2,0,2.2-1.1,2.2-2.4c0-1.3-1-2.4-2.2-2.4c-1.2,0-2.2,1.1-2.2,2.4S173.7,597.1,174.9,597.1
				L174.9,597.1z"/>
			<path class="st0" d="M189.7,578.7h-0.9c-1.3,0-2.3,1.2-2.3,2.6c0,1.4,1.1,2.6,2.3,2.6h0.9c1.3,0,2.4-1.2,2.4-2.6
				C192.1,579.9,191,578.7,189.7,578.7L189.7,578.7z"/>
			<path class="st0" d="M194.3,573.3h-0.9c-1.4,0-2.6,1.3-2.6,2.9c0,1.6,1.2,2.9,2.6,2.9h0.9c1.4-0.1,2.5-1.5,2.4-3.1
				C196.6,574.5,195.6,573.3,194.3,573.3L194.3,573.3z"/>
			<path class="st11" d="M1095.7,451.6h-0.9c-1.4,0-2.6,1.3-2.6,2.9s1.2,2.9,2.6,2.9h0.9c1.4,0,2.6-1.3,2.6-2.9
				C1098.3,452.9,1097.1,451.6,1095.7,451.6z"/>
			<path class="st11" d="M1087.1,470.4c3.7,0,3.7-6.4,0-6.4c-1.6,0-2.9,1.4-2.9,3.2C1084.3,468.9,1085.6,470.4,1087.1,470.4z"/>
			<path class="st11" d="M1079.5,489.4c3.8,0,3.8-6.6,0-6.6C1075.7,482.8,1075.7,489.4,1079.5,489.4z"/>
			<path class="st11" d="M1090.2,485.4l-0.9,0.2c-1.3,0.4-2.1,2-1.7,3.4c0.2,0.9,0.9,1.6,1.7,1.9l0.9,0.2c1.4,0.4,2.9-0.5,3.3-2
				c0.4-1.6-0.4-3.2-1.8-3.6l0,0C1091.2,485.3,1090.7,485.3,1090.2,485.4z"/>
			<path class="st11" d="M1104.2,511.2c0.9,0.1,1.8-0.6,1.9-1.7c0.1-1-0.6-2-1.5-2.1c-0.9-0.1-1.8,0.6-1.9,1.7c0,0.1,0,0.3,0,0.4
				C1102.8,510.4,1103.5,511.1,1104.2,511.2z"/>
			<path class="st11" d="M1120.4,524.7c4.3,0,4.3-7.5,0-7.5C1116.1,517.2,1116.1,524.7,1120.4,524.7z"/>
			<path class="st11" d="M1110,545.8c4.3,0,4.3-7.5,0-7.5C1105.6,538.4,1105.6,545.8,1110,545.8z"/>
			<path class="st11" d="M1127.1,559.6c4.3,0,4.3-7.5,0-7.5C1122.7,552.1,1122.7,559.6,1127.1,559.6z"/>
			<path class="st11" d="M1133.7,565.9c4.3,0,4.3-7.5,0-7.5C1129.4,558.4,1129.4,565.9,1133.7,565.9z"/>
			<path class="st11" d="M1124.2,583.9c4.3,0,4.3-7.5,0-7.5C1119.9,576.4,1119.9,583.9,1124.2,583.9z"/>
			<path class="st11" d="M1129,595.4c4.3,0,4.3-7.5,0-7.5C1124.7,588,1124.6,595.4,1129,595.4z"/>
			<path class="st11" d="M1146.1,607.1c4.3,0,4.3-7.5,0-7.5C1141.8,599.6,1141.8,607.1,1146.1,607.1z"/>
			<path class="st11" d="M1150.8,620.9c4.3,0,4.3-7.5,0-7.5C1146.5,613.4,1146.6,620.9,1150.8,620.9z"/>
			<path class="st11" d="M1158.4,572.4h-0.9c-1.2,0-2.2,1.1-2.2,2.4c0,1.3,1,2.4,2.1,2.4l0,0h0.9c1.2,0,2.2-1.1,2.2-2.4
				C1160.6,573.5,1159.7,572.4,1158.4,572.4C1158.5,572.4,1158.5,572.4,1158.4,572.4L1158.4,572.4z"/>
			<path class="st11" d="M1153.7,559.9c1,0,1.8-0.9,1.8-2s-0.8-2-1.8-2c-1,0-1.8,0.9-1.8,2l0,0
				C1151.9,559,1152.7,559.9,1153.7,559.9z"/>
			<path class="st11" d="M1143.2,548.4c0.5,0.1,1-0.3,1.1-0.9c0.1-0.6-0.3-1.1-0.8-1.2s-1,0.3-1.1,0.9c0,0.1,0,0.2,0,0.3
				C1142.4,548,1142.8,548.4,1143.2,548.4z"/>
			<path class="st11" d="M1163.2,543.1h-0.9c-1.1,0-2,1-2,2.2c0,1.2,0.9,2.2,2,2.2h0.9c1.1,0,2-1,2-2.2
				C1165.2,544,1164.3,543.1,1163.2,543.1z"/>
			<path class="st11" d="M1144.2,542.7c0,0.3,0.1,0.7,0.2,1c0.3,1.1,1.3,1.7,2.3,1.3c0.6-0.2,1-0.7,1.2-1.3c0-0.3,0.1-0.7,0.2-1
				c0.3-1.2-0.3-2.4-1.4-2.7c-1-0.3-2.1,0.4-2.4,1.5l0,0C1144.1,542,1144.1,542.4,1144.2,542.7L1144.2,542.7z"/>
			<path class="st11" d="M1151.8,532.6c1,0.1,2-0.7,2.1-1.9c0.1-1.2-0.7-2.2-1.7-2.3c-1-0.1-2,0.7-2.1,1.9c0,0.1,0,0.3,0,0.4
				C1150.2,531.7,1150.9,532.5,1151.8,532.6z"/>
			<path class="st11" d="M1140.4,522.4c1.2,0.2,2.4-0.8,2.5-2.2c0.1-1.4-0.8-2.6-2-2.8c-1.2-0.2-2.4,0.8-2.5,2.2c0,0.2,0,0.4,0,0.6
				C1138.5,521.4,1139.3,522.3,1140.4,522.4z"/>
			<path class="st11" d="M1142.3,509.9c0.8,0,1.5-0.8,1.5-1.7s-0.7-1.7-1.5-1.7c-0.8,0-1.5,0.8-1.5,1.7
				C1140.8,509.2,1141.5,509.9,1142.3,509.9z"/>
			<path class="st11" d="M1127.1,505.7c0.8,0,1.5-0.8,1.5-1.7s-0.7-1.7-1.5-1.7s-1.5,0.8-1.5,1.7S1126.2,505.7,1127.1,505.7z"/>
			<path class="st11" d="M1124.2,499.7c1.5,0,2.8-1.4,2.8-3.1s-1.2-3.1-2.8-3.1l0,0l0,0c-1.5,0-2.8,1.4-2.8,3.1
				C1121.4,498.3,1122.7,499.7,1124.2,499.7z"/>
			<path class="st11" d="M1120.4,475.5c1.5,0,2.8-1.4,2.8-3.1s-1.2-3.1-2.8-3.1c-1.5,0-2.8,1.4-2.8,3.1l0,0
				C1117.6,474.1,1118.9,475.5,1120.4,475.5z"/>
			<path class="st11" d="M1123.3,456.4c1,0.1,1.8-0.7,1.9-1.8s-0.6-2-1.6-2.1c-1-0.1-1.8,0.7-1.9,1.8c0,0.1,0,0.2,0,0.4
				C1121.7,455.5,1122.4,456.3,1123.3,456.4z"/>
			<path class="st11" d="M1135.8,441.6l-1-1c-0.6-0.7-1.6-0.7-2.2,0s-0.6,1.7,0,2.4l0.9,1.1C1134.9,445.8,1137.3,443.1,1135.8,441.6
				z"/>
			<path class="st11" d="M1127.1,425.9h0.9c1-0.1,1.7-1.1,1.6-2.2c-0.1-1-0.8-1.7-1.6-1.8h-0.9
				C1124.7,421.7,1124.7,426.2,1127.1,425.9L1127.1,425.9z"/>
			<path class="st11" d="M1142.3,420.9c1.2,0,2.2-1.1,2.2-2.4c0-1.3-1-2.4-2.2-2.4c-1.2,0-2.2,1.1-2.2,2.4
				C1140.1,419.8,1141.1,420.9,1142.3,420.9L1142.3,420.9z"/>
			<path class="st11" d="M1137.7,455.3l-0.6-0.6c-2.7-2.8-6.8,1.7-4.1,4.6l0.6,0.6c1.2,1.2,3,1.1,4-0.2
				C1138.7,458.4,1138.7,456.6,1137.7,455.3l-0.6-0.6c-2.5-3.1-6.6,1.5-4.1,4.6l0.6,0.7C1136.1,463,1140.5,458.1,1137.7,455.3z"/>
			<path class="st11" d="M1141.3,431.5c1.2,0.1,2.2-0.9,2.3-2.2c0.1-1.3-0.8-2.5-2-2.6s-2.2,0.9-2.3,2.2c0,0.1,0,0.3,0,0.4
				C1139.5,430.4,1140.3,431.4,1141.3,431.5z"/>
			<path class="st11" d="M1090,516.9l-0.9,0.1c-1.4,0-2.6,1.3-2.6,2.9c0,1.6,1.2,2.9,2.6,2.9l0,0l0,0l0.9,0.1c1.5,0,2.7-1.3,2.7-3
				l0,0l0,0C1092.7,518.3,1091.5,517,1090,516.9z"/>
			<path class="st11" d="M1081.4,538.4c1.3,0.1,2.5-1,2.6-2.4c0.1-1.5-0.9-2.7-2.2-2.8c-1.3-0.1-2.5,1-2.6,2.4c0,0.1,0,0.3,0,0.4
				C1079.4,537.3,1080.3,538.3,1081.4,538.4z"/>
			<path class="st11" d="M1099.9,561.7l-1-1c-0.7-0.8-1.9-0.8-2.7,0c-0.7,0.8-0.7,2.1,0,3l0.9,1.1
				C1098.9,566.7,1101.7,563.6,1099.9,561.7L1099.9,561.7z"/>
			<path class="st11" d="M1100.5,575.7c0.9,0.1,1.8-0.6,1.9-1.7s-0.6-2-1.5-2.1c-0.9-0.1-1.8,0.6-1.9,1.7c0,0.1,0,0.3,0,0.4
				C1099,575,1099.7,575.6,1100.5,575.7z"/>
			<path class="st11" d="M1107.5,596.4c-0.8-0.5-1.7-0.9-2.5-1.3c-1.3-0.4-2.7,0.4-3,1.9c-0.2,1,0,2,0.6,2.7
				c0.7,0.6,1.5,1.2,2.3,1.7c1.2,0.8,2.8,0.3,3.5-1C1109.2,599,1108.8,597.3,1107.5,596.4L1107.5,596.4z"/>
			<path class="st11" d="M1122.3,614.2c1.2,0.1,2.3-0.9,2.4-2.2c0.1-1.3-0.8-2.5-2-2.7c-1.2-0.1-2.3,0.9-2.4,2.2c0,0.1,0,0.3,0,0.4
				C1120.4,613.1,1121.2,614.1,1122.3,614.2z"/>
			<path class="st11" d="M1135.6,628.4c0.8,0,1.5-0.8,1.5-1.7c0-0.9-0.7-1.7-1.5-1.7c-0.8,0-1.5,0.8-1.5,1.7
				C1134.1,627.6,1134.8,628.4,1135.6,628.4z"/>
			<path class="st11" d="M1144.2,643.3c1,0,1.7-0.9,1.7-1.9c0-1.1-0.8-1.9-1.7-1.9c-1,0-1.7,0.9-1.7,1.9l0,0
				C1142.4,642.4,1143.2,643.3,1144.2,643.3z"/>
			<path class="st11" d="M1155.3,636v1.1c0,1.3,1,2.4,2.2,2.4c1.2,0,2.1-1.1,2.1-2.4V636c0-1.3-1-2.4-2.2-2.4
				C1156.3,633.6,1155.3,634.7,1155.3,636L1155.3,636z"/>
			<path class="st11" d="M1170.4,625.9l-1-1c-0.8-0.9-2.2-0.9-3,0s-0.8,2.4,0,3.4l0.9,1.1c1,0.8,2.3,0.6,3-0.5l0,0
				C1170.9,628,1170.9,626.8,1170.4,625.9L1170.4,625.9z"/>
			<path class="st11" d="M1163.2,611.9c1.1,0.1,2.1-0.8,2.2-2.1c0.1-1.2-0.7-2.3-1.9-2.4s-2.1,0.8-2.2,2.1c0,0.1,0,0.3,0,0.4
				C1161.4,611,1162.2,611.9,1163.2,611.9z"/>
			<path class="st11" d="M1166.1,603.5c1.2,0.1,2.2-0.8,2.3-2.1c0.1-1.3-0.8-2.4-1.9-2.5s-2.2,0.8-2.3,2.1c0,0.1,0,0.3,0,0.4
				C1164.3,602.6,1165.1,603.4,1166.1,603.5z"/>
			<path class="st11" d="M1176.6,594.8l-1-1c-0.6-0.6-1.5-0.5-2,0.2c-0.4,0.6-0.4,1.4,0,2l0.9,1.1
				C1175.8,598.6,1178,596.2,1176.6,594.8L1176.6,594.8z"/>
			<path class="st11" d="M1168.9,577.7c0.9,0.1,1.7-0.7,1.8-1.7c0.1-1-0.6-1.9-1.5-2c-0.9-0.1-1.7,0.7-1.8,1.7c0,0.1,0,0.2,0,0.3
				C1167.5,577,1168.1,577.7,1168.9,577.7z"/>
			<path class="st11" d="M1177.5,568.5c1.1,0.1,2-0.8,2.1-1.9c0.1-1.1-0.7-2.2-1.7-2.3c-1.1-0.1-2,0.8-2.1,1.9c0,0.1,0,0.3,0,0.4
				C1175.8,567.6,1176.5,568.4,1177.5,568.5z"/>
			<path class="st11" d="M1169.9,558.2c1.2,0.1,2.2-0.9,2.3-2.2c0.1-1.3-0.8-2.5-2-2.6c-1.2-0.1-2.2,0.9-2.3,2.2c0,0.1,0,0.3,0,0.4
				C1168,557.2,1168.8,558.1,1169.9,558.2z"/>
			<path class="st11" d="M1176.5,540.4h-0.9c-1.4,0-2.5,1.2-2.5,2.8c0,1.5,1.1,2.7,2.5,2.7h0.9c1.4,0.1,2.6-1,2.7-2.6
				c0.1-1.6-0.9-2.9-2.3-3C1176.8,540.3,1176.6,540.3,1176.5,540.4L1176.5,540.4L1176.5,540.4z"/>
			<path class="st11" d="M1160.4,527.2h0.9c1,0,1.9-0.9,1.9-2.1c0-1.1-0.8-2.1-1.9-2.1h-0.9c-1,0-1.9,0.9-1.9,2.1
				C1158.5,526.3,1159.3,527.3,1160.4,527.2L1160.4,527.2z"/>
			<path class="st11" d="M1175.6,516.6h-0.6c-2.6-0.2-2.6,4.3,0,4.5h0.6C1178.2,521.4,1178.2,516.4,1175.6,516.6l-0.6-0.1
				c-2.6,0.2-2.6,4.7,0,4.5h0.6c1.1,0,2-1,2-2.2C1177.6,517.6,1176.7,516.7,1175.6,516.6L1175.6,516.6L1175.6,516.6L1175.6,516.6z"
				/>
			<path class="st11" d="M1153.2,508.9c0.8,0.5,1.7,0.9,2.6,1.2c1.1,0.3,2.3-0.2,2.9-1.3c0.6-1.1,0.4-2.5-0.4-3.5
				c-0.7-0.6-1.5-1.2-2.3-1.7c-1.3-0.9-3-0.4-3.8,1.1C1151.4,506.2,1151.9,508.1,1153.2,508.9L1153.2,508.9z"/>
			<path class="st11" d="M1168.9,501.3c-0.7-0.1-1.5,0.1-2.1,0.5c-1.1,0.7-1.4,2.3-0.8,3.5l0,0c0.2,0.4,0.5,0.6,0.8,0.9
				c0.6,0.4,1.4,0.6,2.1,0.5c1.4,0,2.5-1.2,2.5-2.7S1170.3,501.3,1168.9,501.3z"/>
			<path class="st11" d="M1154.1,491.8l-0.4,0.4l-1.5,0.5l-0.6-0.1c-1-0.7-1.3-0.9-1-0.6c0.3,0.3,0.2,0-0.3-0.9
				c-0.3-0.4-0.4-1-0.3-1.6c-0.2,1,0,1.9,0.5,2.7c0.5,0.8,1.3,1.3,2.2,1.2c1.4,0,2.6-1,3-2.5c0.3-1.1,0.2-2.2-0.3-3.1
				c-1-1.9-3.2-2.5-4.9-1.4l0,0c-0.2,0.2-0.5,0.4-0.7,0.6c-1.2,1.3-1.2,3.5,0,4.8C1151,493.2,1153,493.2,1154.1,491.8L1154.1,491.8z
				"/>
			<path class="st11" d="M1166.1,486.1V485c0-1.2-0.9-2.2-2-2.2s-1.9,1-1.9,2.2v1.1c0.1,1.2,1.1,2.1,2.2,2
				C1165.3,488.1,1166.1,487.2,1166.1,486.1L1166.1,486.1z"/>
			<path class="st11" d="M1146.2,475.4l1,1.1c1,1.1,2.5,1,3.5-0.1c0.9-1.1,0.9-2.8,0-3.8l-0.9-1.1c-1-1.1-2.5-1.1-3.5,0
				C1145.3,472.6,1145.3,474.3,1146.2,475.4z"/>
			<path class="st11" d="M1148.9,456.2h0.9c1.4,0,2.6-1.3,2.6-2.8c0-1.6-1.2-2.8-2.6-2.8h-0.9c-1.4,0-2.5,1.3-2.5,2.8
				S1147.5,456.1,1148.9,456.2L1148.9,456.2z"/>
			<path class="st11" d="M1148.1,444.1c1.1,0.1,2.1-0.8,2.2-2.1c0.1-1.3-0.8-2.4-1.9-2.5c-1.1-0.1-2.1,0.8-2.2,2.1
				c0,0.1,0,0.3,0,0.4C1146.3,443.1,1147.1,444,1148.1,444.1z"/>
			<path class="st11" d="M1157.5,468.3c3.8,0,3.9-6.7,0-6.7S1153.7,468.3,1157.5,468.3z"/>
			<path class="st11" d="M1113.8,443.5h0.9c1.4,0,2.5-1.2,2.5-2.7c0-1.5-1.1-2.7-2.5-2.8l0,0h-0.9c-1.4,0-2.5,1.2-2.5,2.8
				C1111.3,442.2,1112.4,443.5,1113.8,443.5z"/>
			<path class="st11" d="M1110.9,430.7c1.3,0.1,2.5-1,2.6-2.4c0.1-1.5-0.9-2.8-2.2-2.9c-1.3-0.1-2.5,1-2.6,2.4c0,0.1,0,0.3,0,0.4
				C1108.8,429.5,1109.7,430.6,1110.9,430.7z"/>
			<path class="st11" d="M1092.9,439.4c1.4,0,2.6-1.3,2.6-2.9s-1.2-2.9-2.6-2.9s-2.6,1.3-2.6,2.9S1091.4,439.4,1092.9,439.4z"/>
			<path class="st11" d="M1100.5,472.7c4,0,4-7,0-7C1096.4,465.7,1096.4,472.7,1100.5,472.7z"/>
			<path class="st11" d="M1102.4,488.6h-0.9c-1.4,0-2.6,1.3-2.6,2.9s1.1,2.8,2.6,2.8h0.9c1.4,0,2.6-1.3,2.6-2.9
				C1104.9,489.8,1103.8,488.5,1102.4,488.6L1102.4,488.6z"/>
			<path class="st11" d="M1112.8,487.1c1,0,1.7-0.9,1.7-1.9c0-1-0.8-1.9-1.7-1.9c-1,0-1.7,0.9-1.7,1.9l0,0
				C1111.1,486.2,1111.9,487.1,1112.8,487.1z"/>
			<path class="st11" d="M1080.9,505.6l1,2.1c0.8,1.5,2.5,2,3.8,1.1s1.8-2.8,1-4.3l-0.9-2.2c-0.8-1.5-2.6-2-4-1.2
				C1080.6,502.2,1080.2,504.1,1080.9,505.6L1080.9,505.6z"/>
			<path class="st11" d="M1104.2,525.4c4,0,4-6.8,0-6.8C1100.3,518.6,1100.3,525.4,1104.2,525.4z"/>
			<path class="st11" d="M1094.8,545.6c4.2,0,4.2-7.2,0-7.2C1090.6,538.5,1090.6,545.6,1094.8,545.6z"/>
		</g>
	</g>
</g>
<g>
	<g>
		<defs>
			<rect id="SVGID_21_" y="0.5" width="1128.5" height="836.1"/>
		</defs>
		<clipPath id="SVGID_5_">
			<use xlink:href="#SVGID_21_"  style="overflow:visible;"/>
		</clipPath>
		<g class="st14">
			<path class="st15" d="M81.4,359.5c42.3-3.8,87.8,7.4,117.3,41.1c-18.2-5.4-36.8,7.6-55.7,7.4c-22.2-0.2-43.1-18.5-64.8-13.4
				c27.6,27.3,56.4,56.8,67.6,95.9c3.4,12,5.1,24.4,8.9,36.2c-12.3-9-26.3-14.7-39.3-22.3c-13-7.6-25.6-17.7-32.4-32.1
				c-9.6-20.9-5.7-47.8-17.7-67.2c12.9,51.5,4.6,106.7-22.6,150.8c1.8-14.1,1.1-28.3-2.2-42.1c-2.5-10.5-6.5-21-5.3-31.6
				c0.5-4.4,1.9-8.6,2.6-13c2.3-14.8-3.4-29.4-7.9-43.5c-5.5-17-9.2-35,4.2-47.5S64.1,361,81.4,359.5z"/>
			<path class="st15" d="M1086.2,154c10.9,45.5,9,97.3-15.6,135.6c1.5-20.9-13.2-38.9-16.4-59.5c-3.8-24.3,8.7-50.4,0.4-73.2
				c-19.4,35.1-40.3,71.7-73.1,90.9c-10,5.9-20.8,9.9-30.5,16.2c5.7-15.1,8.3-31.3,12.7-46.9c4.4-15.6,11.1-31.1,22.8-41.1
				c16.8-14.3,41.4-14.7,56.3-31.2c-43.3,23.2-93.7,23.9-137.5,2.1c12.8-0.5,25.3-3.8,36.9-9.9c8.8-4.6,17.4-10.9,27.1-11.4
				c4-0.2,8,0.5,12,0.5c13.5-0.1,25.5-8.9,37.1-16.4c14.1-9.1,29.4-16.3,42.8-3.9C1074.7,118.2,1081.8,135.4,1086.2,154z"/>
		</g>
	</g>
</g>
<g>
	<g>
		<defs>
			<rect id="SVGID_23_" y="0.5" width="1128.5" height="836.1"/>
		</defs>
		<clipPath id="SVGID_6_">
			<use xlink:href="#SVGID_23_"  style="overflow:visible;"/>
		</clipPath>
		<g class="st16">
			<path class="st17" d="M1176.6,884.8c-12.3-26.9-30.4-49.5-50.1-70c-18.9-19.7-39.1-39.6-63.6-50.3
				c-26.1-11.5-55.7-11.9-83.3-15.6c-30.1-4-60.3-8-90.1-14.5c-33.1-7.2-65.1-18.2-95.4-34.7c-0.7-0.4-1.2,0.7-0.6,1.1
				c49.2,28.1,105,38.7,159.2,46.5c29.1,4.2,58.7,7,87.4,13.9c29.1,7,53.1,24.4,75.3,45.9c23.4,22.6,45.7,47.5,60.2,78.3
				C1176.1,886,1176.9,885.3,1176.6,884.8L1176.6,884.8z"/>
			<path class="st17" d="M926.2,741.4c-32.4,1.3-44.8-41.3-65.4-61.4c-10-9.8-21.5-17.5-32.7-25.3c-13.3-9.4-26.6-18.8-39.9-28
				c-0.9-0.6-1.7,0.9-0.8,1.5c13.7,9.8,27.4,19.4,41.1,29c13.7,9.7,27.7,18.9,38.6,32.2c16.7,20.4,29.9,54.2,59.2,52.4
				C926.4,741.8,926.4,741.4,926.2,741.4L926.2,741.4z"/>
			<path class="st17" d="M787.7,631.6c19.1,14,27.1,38.5,41,57.7c16.3,22.5,42.1,32.1,64.9,44.1l9.3,4.9c1.8,1,9.6,4.3,3.3,1
				c-4.7-2.4-12.3-2.4-17.4-2.6c-12.7-0.2-25.4,1.4-37.8,4.8c-28.4,7.2-56,18.4-83.6,28.4c-0.6,0.2-0.8,1.4,0,1.5
				c23.3,3.5,47,1.9,69.7-4.7c23.7-6.9,45.8-19.7,69.8-25.3c1.1-0.3,0.6-2.1-0.5-1.9c-22.2,5.6-42.6,17-64.3,24.1
				c-12.5,4.1-25.3,6.7-38.3,7.7c-5.6,0.4-11.2,0.6-16.8,0.4c-2.6-0.1-15.4-2.6-16.6-1.3c1.2-1.2,5.3-1.9,7-2.5l9.7-3.6
				c5.5-2,11-4.1,16.6-6.1c11.4-4.1,22.8-8,34.4-11.6c23.8-7.3,48.7-12.2,72.9-4.1c0.8,0.3,1.4-1.1,0.6-1.5
				c-14.4-7.5-28.9-14.9-43.3-22.5c-13.4-7.1-26.6-14.9-36.5-27.5c-15.3-19.7-23.2-45.9-43.4-60.7
				C787.7,629.8,786.9,631.1,787.7,631.6L787.7,631.6z"/>
			<path class="st17" d="M909.9,742.1c4.9,1,9.9,0.7,14.7-0.7c0.4-0.1,0.7-0.6,0.6-1.1l0,0c-0.1-0.5-0.5-0.7-1-0.6
				c-4.5,1.3-9.2,1.4-13.8,0.3C909.2,739.7,908.7,741.8,909.9,742.1L909.9,742.1z"/>
			<path class="st17" d="M1068.3,767.3c-14.5-12.8-32.7-16.2-49.1-24.8c-17.7-9.5-31-25.8-44.3-41.6c-26.3-31.2-56.5-55.7-93-70.2
				c-0.6-0.2-1.2,0.2-1.3,0.9c-0.1,0.5,0.1,1,0.5,1.3c17.8,10.1,29.9,27.7,41.6,45.2c10.9,16.2,22,31.5,36.7,43.7
				c15.9,13,33.7,22.7,52.7,28.7c19.6,6.4,42.3,7.1,58.5,22.4c0.7,0.6,1.6-0.4,1-1.1c-14.2-13.9-32.8-16.7-50.5-21.5
				c-21-5.5-40.9-15.4-58.5-29.2c-17.1-13.8-29.3-31.7-42-50.3c-10.7-15.8-22.2-30.9-38.3-40c-0.3,0.7-0.6,1.4-0.8,2.2
				c18.8,7.5,36.6,17.7,52.9,30.4c15.9,12.4,29.3,27.3,42.6,43c11.7,13.9,24.1,27.7,39.5,36.3c16.8,9.4,36.3,12,51.4,25.2
				C1068.2,768.2,1068.7,767.6,1068.3,767.3L1068.3,767.3z"/>
			<path class="st17" d="M1083.9,781.4c-62.6-35.3-141.4-28.5-197.9,18.2c-0.6,0.5-0.3,1.9,0.6,1.5c27.8-12.3,57.9-8.7,86.9-14
				c14.6-2.7,27.6-9.1,41.3-15.1c15.1-6.6,32.4-10.6,46.8,0.4c0.8,0.6,1.5-0.8,0.8-1.5c-21.2-16.2-45.8-0.9-66.6,7.7
				c-25.6,10.5-52.9,9.1-79.5,13c-6.4,0.9-12.7,2.2-19,4c-3,0.6-5.8,1.6-8.6,2.9c-1.5,0.9,1.7-0.4,1.9-0.5c1.7-1.1,3.3-2.3,4.8-3.6
				c10.6-7.6,21.9-14,33.7-19c23.1-9.8,47.6-14.8,72.3-14.6c28.5,0.1,56.7,7.3,82.4,21.1C1084,782.2,1084.3,781.6,1083.9,781.4
				L1083.9,781.4z"/>
			<path class="st17" d="M1066.5,771.3c0.2-0.1,0.4-0.3,0.3-0.6l0,0c0-0.2-0.2-0.4-0.3-0.4c-0.2,0.1-0.4,0.3-0.3,0.6l0,0
				C1066.2,771.1,1066.3,771.3,1066.5,771.3z"/>
			<path class="st17" d="M1102.7,794.1c-45.5-39.6-59.4-105.1-58.2-166.4l-1.8,0.3c3.9,13.8,11.6,25,18.8,36.8
				c9.2,15.1,13.5,30,16.3,47.8c4.8,32.7,16,63.9,32.9,91.1c0.3-0.5,0.7-1,1-1.5c-7.5-2.5-13-12.1-17.5-18.8
				c-3.8-5.7-7.3-11.7-10.5-17.9c-6.3-12.4-11.7-25.3-16-38.7c-8.6-26.4-14.2-53.9-19.4-81.3c-0.2-0.9-1.3-0.5-1.2,0.4
				c6.2,30.8,12.4,61.9,23.1,91.3c4.7,13.3,10.6,26,17.4,38.1c5.6,9.7,13.2,24.7,23.5,28.7c0.5,0.1,1-0.2,1.1-0.7l0,0
				c0.1-0.3,0-0.5-0.1-0.8c-16.5-28.5-27.7-60.4-33.1-93.7c-2.5-14.9-6.2-28-13.7-40.8c-7.5-13.3-16.6-25.4-20.9-40.7
				c-0.2-0.5-0.8-0.7-1.2-0.5c-0.3,0.1-0.5,0.4-0.5,0.7c-1.5,62.1,13.4,127.5,59.3,167.2C1102.5,795.2,1103.2,794.4,1102.7,794.1
				L1102.7,794.1z"/>
			<path class="st17" d="M1043.7,640.2c0.4,0,0.8-0.4,0.8-0.8c0-0.4-0.3-0.8-0.8-0.8s-0.8,0.4-0.8,0.8
				C1042.9,639.8,1043.3,640.2,1043.7,640.2z"/>
			<path class="st17" d="M1057.2,759.5c-32.2-7.8-62.4-23.5-88.2-46.1c-24.3-21.5-40.9-52.4-66.8-71.3c-0.8-0.6-1.6,0.9-0.8,1.5
				c14.7,10.7,26,25,37.6,39.4c10.1,12.6,21.2,24,33.3,34.2c25.1,21,53.9,35.7,84.6,43.3C1057.5,760.7,1057.8,759.6,1057.2,759.5
				L1057.2,759.5z"/>
			<path class="st17" d="M907.1,740.4c-21.1-13.1-42.1-26.6-57.6-47.9c-7.5-10.3-14.5-19.5-24-27.5c-10.8-9.2-20.2-19.2-27.8-31.7
				c-0.5-0.7-1.5,0-1.1,0.7c6.4,11,14.4,20.8,23.7,28.8c5.6,4.9,11.5,9.3,16.5,15c4.3,4.9,8,10.5,11.9,15.8
				c15.6,21.3,36.7,34.7,58,47.8C907.1,741.7,907.6,740.7,907.1,740.4L907.1,740.4z"/>
			<path class="st17" d="M901.4,739.9c-9.9-3-18.8,0.3-28.6,2.2c-5.8,1.1-11.6,0.6-17.3,1.4c-4.8,0.7-8.8,3.4-13,5.8
				c-22.4,12.7-47.4,18.8-72.5,17.5c-0.3,0-0.5,0.3-0.5,0.6s0.2,0.6,0.5,0.6c21.3,1.3,42.5-2.8,62.2-12c4.9-2.3,9.5-5.2,14.2-7.8
				c6.4-3.5,11.8-3.6,18.7-4c12.1-0.8,23.9-7.4,36.1-3.3C901.7,741.1,902,740,901.4,739.9L901.4,739.9z"/>
			<path class="st17" d="M895.5,793.6c44.7-17.2,91.3-23.9,138-30.3c0.9-0.1,1-1.8,0-1.7c-23.2,3.1-46.3,7.2-69.4,11.3
				c-23.4,4.1-46.8,10.1-68.9,19.9C894.8,792.9,895,793.8,895.5,793.6L895.5,793.6z"/>
			<path class="st17" d="M1145.1,837.3c-21.1-23.4-45-39.7-75.2-42.8c-32.9-3.4-64.2,7.6-95.3,17.7c-0.3,0.1-0.4,0.4-0.4,0.8l0,0
				c0.1,0.2,0.3,0.4,0.5,0.4c27.5,2.8,54.8,5.1,82.4,3.3c25.2-1.7,51.9-5.1,75,8.8c0.7,0.4,1.5-0.7,0.9-1.2
				c-18.6-16.1-41.7-21.7-64.8-21.8c-29.7-0.2-59.6,5.8-89,9.8c-0.7,0.1-0.7,1.3,0,1.2c33.8-4.5,69.2-12.9,103.3-9
				c16,1.8,29.7,7.5,43.7,16.2c0.1,0,4.2,1.9,4.5,2.2c-1.4-1-2.9-1.8-4.4-2.3c-2.7-1.3-5.4-2.4-8.2-3.4c-6.3-2-12.9-3.2-19.4-3.7
				c-14.7-1.2-29.4,0.6-44.1,1.7c-16,1.1-32.1,1.1-48.1-0.1c-8.2-0.6-16.4-1.3-24.6-2.1c-5.2-0.5-5.6,0-0.3-1.7
				c4.5-1.4,9-2.8,13.5-4.1c16.6-4.8,33.3-9.2,50.4-10.6c17.7-1.5,36-0.1,52.9,6.7c17.8,7.2,32.6,20.2,46.2,34.5
				c0.1,0.1,0.3,0.1,0.4,0l0,0C1145.2,837.5,1145.2,837.3,1145.1,837.3L1145.1,837.3L1145.1,837.3z"/>
			<path class="st18" d="M330.9,120.1c-5.9,2.3-12.2,3.6-18.4,3.9c-8.9,0.1-19.3-5.3-28.1-7.5c-10.6-2.4-21.2-5.5-31.5-9.3
				c-5-1.9-44.6-30.5-45.5-27.5c-3.2,10.8-0.9,22.6,6,31c5,6.1,11.9,9.5,17,15.5c8,9.2,10.7,22.9,18.1,32.7
				c10.4,13.6,27.5,16.4,39.4,28.1c19.9,19.8,18.6,57,36.1,79.7c-23-4.6-45.3-12.9-66.2-24.4c-19.3-10.7-29.7-28.9-42.3-49.1
				c-7.4-11.3-14.1-22.9-20.2-35.1c-7.1-15.6-12.6-32-16.4-49c-3.3-14.3-2.5-28.5-11.2-40.5c-9.9,8.8-16.3,27.7-14.4,43
				c1.9,14.6,11.5,27.5,14.5,42.5c3,15.7,0.3,31.4-1.2,47s-1.4,32.6,6.2,46.3c-28.9-18.6-45.4-49.9-48.3-86.8
				c-2.9-32.2-2.2-64.8,1.9-96.8c-12.5,22.2-27.8,42.4-47.2,55.9s-43.4,19.8-66.4,13.4c12-2.1,20.2-14.7,25.3-27.5s8.6-27,16.5-37.5
				c12.9-17.2,34.6-20.5,51.9-31.2c19.3-12.1,33.6-33.9,54.7-41.5c15.2,12.1,32.1,17.9,46.8,29.6c16,12.9,27.9,32.3,45.8,41.9
				c14.6,7.9,24.9,4.6,38.8,1.5c17.4-3.5,29,8,42.7,20c8.8,7.6,18.6,15.6,29.1,14.8C354.4,108.5,342.6,115.7,330.9,120.1z"/>
			<path class="st17" d="M323.7,265.9c-42.3-31.4-86.5-64.7-111.1-116c-0.6-1.2-2.2-0.1-1.6,1.1c18.8,39.6,50.4,68.8,82.9,94.1
				c9.6,7.5,19.5,14.7,29.3,21.8C323.7,267.1,324.2,266.2,323.7,265.9L323.7,265.9z"/>
			<path class="st17" d="M207.5,138.8c-24.9-44.1-21.9-100.4-47.4-144l-1.3,1.5c6.2,5.3,11.5,12,15.4,19.6c0.2,0.3,0.7,0.4,1,0.2
				c0.3-0.2,0.4-0.6,0.2-1c-3.9-7.9-9.2-14.8-15.4-20.5c-0.8-0.7-2.1,0.2-1.5,1.3c24.6,44.3,22.6,99.9,47.6,143.8
				C206.6,140.8,208.1,139.7,207.5,138.8L207.5,138.8z"/>
			<path class="st17" d="M175.8,19.7c19.4,21.4,39.1,43.1,63.5,57.4c24.6,14.4,52.5,20.9,79.6,26.9c14.4,3.2,30.1,5.7,44.2-0.5
				c0.7-0.3,0.4-1.7-0.3-1.3c-13.7,5.4-27.6,4.2-41.6,1.1c-13.1-2.8-26.1-6.2-38.9-10.1c-13.5-3.8-26.6-9.2-39.1-15.9
				c-11.9-6.8-23.1-15.1-33.3-24.7c-11.6-10.7-22.3-22.4-33-34.1c-0.3-0.3-0.8-0.2-1,0.1C175.6,18.9,175.6,19.4,175.8,19.7
				L175.8,19.7z"/>
			<path class="st17" d="M173.3,247c-25.6-38.3-41.9-89.1-33.7-137.1c0.2-1.3-1.5-1.8-1.8-0.6c-3.9,24.2-1.5,49.2,4.6,72.7
				c6.1,23.8,16.3,46.1,30.1,65.6C172.8,248.1,173.6,247.5,173.3,247L173.3,247z"/>
			<path class="st17" d="M140.7,92.8c3.3-23.9,7.9-47.6,13.8-70.8c0.1-0.6-0.2-1.2-0.7-1.4c-0.5-0.2-1.1,0.2-1.2,0.8
				c-5.8,23.3-10.5,47-13.9,70.8C138.5,93.7,140.5,94.3,140.7,92.8z"/>
			<path class="st17" d="M15.1,134c17-0.1,33.5-6.1,47.3-17.1c0.7-0.6,0-2-0.7-1.4c-13.5,11.1-29.8,17.2-46.6,17.4
				c-0.2,0-0.5,0.2-0.5,0.5C14.6,133.8,14.8,134,15.1,134L15.1,134z"/>
			<path class="st17" d="M71.4,110.8c17.1-14.2,34.2-28.8,46.5-48.6c6.7-10.8,12.6-22.1,19.9-32.2c7.1-10.2,14.8-19.9,23.1-28.9
				c0.9-1-0.6-2.5-1.4-1.5c-7.4,9.6-15.5,18.4-22.6,28.3c-6.8,9.4-12.3,19.7-18.3,29.6c-12.6,21.3-30,36.6-48.2,51.7
				C69.5,109.9,70.4,111.6,71.4,110.8z"/>
		</g>
	</g>
</g>
</svg>
