<svg xmlns="http://www.w3.org/2000/svg" viewBox="0 0 139.12 138.16"><defs><style>.cls-1{fill:#f9f3e6;}.cls-1,.cls-11,.cls-7{stroke:#5e6696;stroke-miterlimit:10;}.cls-2{fill:#616898;}.cls-3{fill:#e070ba;}.cls-4{fill:#b38bcb;}.cls-5{fill:#df6cb8;}.cls-6{fill:#5e6696;}.cls-7,.cls-8{fill:none;}.cls-7{stroke-linecap:round;stroke-width:2px;}.cls-9{fill:#efefef;}.cls-10,.cls-11{fill:#fff;}</style></defs><g id="Capa_2" data-name="Capa 2"><g id="Gato-1"><path class="cls-1" d="M24.73,1.34s3.48,25.94,4.64,27.87c0,0-7.16,18.58-7.74,25.94S11,76.44,11,76.44,2.28,91.53,1.5,96s-1,13.93,5.42,17.61l1.87,1.55s-4.83,18.19-2.38,21l1.35.52,45.55-.07,79,.07a15.67,15.67,0,0,0,1.09-4.91c.07-2.45-3-16.58-3-16.58s6.78-5.68,7.36-9.09.51-11-.71-13.23-9.29-17.16-9.29-17.16l-10.2-18.2s-1.09-15-7.8-28.12c0,0,5-22.2,4.51-27.88A47.91,47.91,0,0,0,98.66.89C91.05,2.05,82.79,4.12,82.79,4.12A44.79,44.79,0,0,0,65.76,2c-9.61.64-10.45,2.64-10.45,2.64S51.76,2.44,50.6,2.24,36.08,1,35.18,1,24.73,1.34,24.73,1.34Z"/><path class="cls-2" d="M79.76,57.21c-3.85,1.25-4.55,1-7.78-3-2,3.2-4.72,4.84-8.57,3.34-.59-.5-1.5-.89-.61-1.87,1.47,0,2.87,1.11,4.4.3A5,5,0,0,0,70,53.68c.49-.5.45-1.21.71-1.8l.46-1.33c.48-.79,1-.57,1.47,0A31.58,31.58,0,0,0,74,53.69c1.36,2.51,3.12,2.92,5.55,1.39.62-.54,1-.15,1.36.35a.94.94,0,0,1-.29,1.35C80.32,57,80,57.05,79.76,57.21Z"/><path class="cls-3" d="M72.43,50.65c-.49-.1-1-.4-1.48,0-.15-.93-1.09-1.21-1.57-1.88s-1-1.09-.71-1.78,1.22-.67,1.82-.6a27.81,27.81,0,0,0,3.28.23c.41,0,.89-.07,1.09.43a1.19,1.19,0,0,1-.28,1.31Z"/><path class="cls-4" d="M134.47,88.15c-3-5.61-6.53-10.91-9.72-16.41-.47-.81-.51-1.82-1.25-2.49.66,3.23-1.29,5.81-2.15,8.66a32.13,32.13,0,0,0-1.25,3.86,9.67,9.67,0,0,0,3,9.26c2.05,1.87,4,3.82,5,6.51a7,7,0,0,0,1.2,1.83c.68.87,1.42,1.85,2.68,1.57a3.78,3.78,0,0,0,2.57-2.34,8.37,8.37,0,0,0,.57-3.84c-.17-1.44-.28-2.88-.34-4.33C134.88,89.64,134.05,89,134.47,88.15Z"/><path class="cls-5" d="M107.43,18.19a45,45,0,0,0,.64-6.86c0-4.8-.79-4.59-4.8-5.35A29.8,29.8,0,0,0,93,5.89C91.3,6.16,90.78,7,91.63,8.48a22.81,22.81,0,0,0,3.68,4.68c2.6,2.58,5,5.37,8.11,7.4,1,.62,2,1.39,3.06.14C107.13,20,106.91,19,107.43,18.19Z"/><path class="cls-4" d="M90.45,120.41c7.28-.13,14.55-.24,21.82-.38a6.54,6.54,0,0,0,2.72-.54,32.46,32.46,0,0,0-5.31.24c-2.13.07-2.59-.28-3.16-2.4s-1-4.17-1.64-6.21c-.6-1.88-1.25-3.8-3.21-4.81a2.42,2.42,0,0,0-3.14.37,39.25,39.25,0,0,0-7.23,8.81A5.92,5.92,0,0,0,90.45,120.41Z"/><path class="cls-4" d="M132.68,133.49c.54-.65.28-1.42.23-2.12a66,66,0,0,0-2.45-14.56c.31,3.3-1,6.1-2.66,8.81-1.5,2.49-3.54,4.67-4.46,7.51,0,.1-.09.19-.11.29-.33,1.46-1,3,.43,4.22s2.74-.08,4-.64a17.86,17.86,0,0,0,2.47-1.63C131.08,134.89,131.48,133.64,132.68,133.49Z"/><path class="cls-6" d="M75.75,112c-.46-.51-.94-.23-1.37.12a19.82,19.82,0,0,0-3.12,3.09l-.78,1h0c.08.14.16.29.25.43a3.73,3.73,0,0,1,.16.35l0,0a2.93,2.93,0,0,1,.43,1,26.22,26.22,0,0,1,3.56-4c.19-.18.42-.32.61-.5C76,113.06,76.25,112.54,75.75,112Z"/><path class="cls-6" d="M136.74,90.5a129,129,0,0,0-8.83-15.73c-3.36-5.45-6-11.29-9.19-16.81-.63-1.11-.46-2.45-.6-3.69A78.15,78.15,0,0,0,116,43.66a15.69,15.69,0,0,0-.95-2.83c-1.22-3.55-2.75-7-4.31-10.38a2,2,0,0,1-.15-1.63,64.76,64.76,0,0,0,2.29-10c.49-3.37,1-6.74,1.53-10.1.12-2,.63-4,.58-6.07S114.57.25,112.6.21A132.11,132.11,0,0,0,98.67.47c-.52,0-1,0-1.56.05-1.89.24-3.81.2-5.69.62a.86.86,0,0,1-.28,0A34.64,34.64,0,0,0,87,2.08a8.79,8.79,0,0,0-1.47.51C83,4,80.77,2.49,78.48,2A36.73,36.73,0,0,0,57.1,3.65L49.93,6.37a.75.75,0,0,0,0,1,1.1,1.1,0,0,0,1.3.23c1.62-.55,3.23-1.14,4.85-1.72l3.51-1.29a28,28,0,0,1,3.49-.93A43,43,0,0,1,73.42,3c4.63.26,8.88,1.89,13.1,3.6.2.08.39.17.59.23.74.23,1.7,1.11,2.17,0s-.86-1.25-1.59-1.63c-.5-.19-1.11-.2-1.44-.76.33-.55.94-.53,1.43-.75a83.49,83.49,0,0,1,13.83-1.6,1.18,1.18,0,0,1,.9-.16c3.15.11,6.29-.13,9.43-.18,1.18,0,1.64.38,1.49,1.55-.28,2.11-.19,4.27-.81,6.35-.76,4.19-1.13,8.45-2.17,12.6-.7,1.29-.42,2.8-.95,4.13-.06.52-.29.51-.51.12-.5-.86-.93-1.75-1.42-2.62-.28-.5-.6-1.09-1.32-.68s-.36.94-.09,1.47c2.35,4.78,4.53,9.63,6.5,14.58.57.75.44,1.75.91,2.53q.8,2.68,1.57,5.35a18.45,18.45,0,0,1,.92,4.15c.7,5.19.7,10.44,1.62,15.6.12.72.24,1.49,1.19,1.63,1.22-.52.85-1.49.7-2.41s-.76-1.73-.3-2.8c.74.45.73,1.32,1.29,1.76q1.25,2.24,2.47,4.47h0c.73.66.78,1.67,1.24,2.48,3.19,5.51,6.72,10.8,9.72,16.41a1.12,1.12,0,0,0-.1.66,8,8,0,0,1,.56,1.18,2.48,2.48,0,0,0,.55.66h0c.4,1.51,1,2.94,1.58,4.41,2.59,7.22-.1,14.47-6.5,18.74a32.83,32.83,0,0,1-15.57,5.25h0a6.54,6.54,0,0,1-2.72.53q-10.9.21-21.81.38a47.66,47.66,0,0,0-7.91.61c-1.29.65-2.83.23-4.11.94-.89,0-1.65.68-2.76.47a23.2,23.2,0,0,1,3.65-5c.67-.8,1.46-1.5,2.19-2.24.43-.44.82-1,.32-1.51s-1-.14-1.49.23a34.32,34.32,0,0,0-6.59,7.93,2.36,2.36,0,0,1-3,1.16,2.28,2.28,0,0,1-.49-.19l0,0a4.52,4.52,0,0,1-1.77.4,3,3,0,0,1-.51.09,7.24,7.24,0,0,0,1.39,1.12,11,11,0,0,0,6.9,0,34.27,34.27,0,0,1,7.86-1.89,26.84,26.84,0,0,1,5-.27c8.57.17,17.11-.41,25.66-.83a13.86,13.86,0,0,0,2.78-.43,37.44,37.44,0,0,0,11.56-3.68c.45-.23.86-.67,1.37-.11h0a66,66,0,0,1,2.46,14.56c0,.7.3,1.47-.23,2.13a2.3,2.3,0,0,0-.28.06,3.5,3.5,0,0,1,0,1.33c-.16.67,0,1.32.71,1.51s.83-.57,1.09-1a20.34,20.34,0,0,0,.31-6c-.43-2.19-.46-4.44-.91-6.63a27,27,0,0,0-1.33-6,2,2,0,0,1,.7-2.54c3.48-2.8,6.1-6.25,6.59-10.85A25.48,25.48,0,0,0,136.74,90.5Z"/><path class="cls-6" d="M123,99.23c-1.91-.54-3.83-1-5.77-1.46-5.92-1.25-11.87-2-17.93-1.18a33.36,33.36,0,0,0-7.58,1.55l0,0a12,12,0,0,1-1.93.54c-.71.63-1.71.55-2.48,1A48.67,48.67,0,0,0,69,112.85c-.16.19-.31.4-.46.6A6.88,6.88,0,0,1,69,114a10.2,10.2,0,0,1,.69.9,26.28,26.28,0,0,1,6-6.13C82.81,103,90.83,99.24,100,98.28a49,49,0,0,1,15.92,1c2.2.5,4.4,1,6.58,1.5.56.14,1.09.28,1.35-.32S123.55,99.38,123,99.23Z"/><path class="cls-4" d="M4.65,88.15c3-5.61,6.54-10.91,9.72-16.41.47-.81.52-1.82,1.25-2.49-.66,3.23,1.29,5.81,2.15,8.66A30.44,30.44,0,0,1,19,81.77,9.65,9.65,0,0,1,16,91c-2,1.87-4,3.82-5,6.51a7.19,7.19,0,0,1-1.19,1.83c-.69.87-1.42,1.85-2.69,1.57A3.74,3.74,0,0,1,4.56,98.6,8.51,8.51,0,0,1,4,94.76c.18-1.44.29-2.88.35-4.33C4.25,89.64,5.08,89,4.65,88.15Z"/><path class="cls-5" d="M31.69,18.19a45,45,0,0,1-.64-6.86c0-4.8.8-4.59,4.81-5.35a29.74,29.74,0,0,1,10.31-.09c1.66.27,2.18,1.14,1.32,2.59a22.81,22.81,0,0,1-3.68,4.68c-2.6,2.58-5,5.37-8.11,7.4-1,.62-2,1.39-3.05.14C32,20,32.21,19,31.69,18.19Z"/><path class="cls-4" d="M48.67,120.41c-7.27-.13-14.54-.24-21.82-.38a6.58,6.58,0,0,1-2.72-.54,32.58,32.58,0,0,1,5.32.24c2.12.07,2.58-.28,3.16-2.4s1-4.17,1.64-6.21c.59-1.88,1.24-3.8,3.21-4.81a2.42,2.42,0,0,1,3.14.37,39.53,39.53,0,0,1,7.23,8.81A5.88,5.88,0,0,1,48.67,120.41Z"/><path class="cls-4" d="M6.44,133.49c-.53-.65-.28-1.42-.23-2.12a66,66,0,0,1,2.46-14.56c-.32,3.3,1,6.1,2.65,8.81,1.51,2.49,3.54,4.67,4.46,7.51a1.78,1.78,0,0,1,.12.29c.32,1.46,1,3-.44,4.22s-2.73-.08-4-.64A18,18,0,0,1,9,135.37C8,134.89,7.65,133.64,6.44,133.49Z"/><path class="cls-6" d="M89.19,6.37,82,3.65A36.74,36.74,0,0,0,60.65,2c-2.3.53-4.56,2.07-7.06.63a9.23,9.23,0,0,0-1.48-.51A34.21,34.21,0,0,0,48,1.16a.88.88,0,0,1-.28,0C45.83.72,43.91.76,42,.52c-.53,0-1.05,0-1.57-.05A132,132,0,0,0,26.53.21c-2,0-2.34.48-2.39,2.41s.46,4,.58,6.07c.57,3.36,1.05,6.73,1.53,10.1a63.66,63.66,0,0,0,2.3,10,2,2,0,0,1-.15,1.63,111.78,111.78,0,0,0-4.31,10.38,15.73,15.73,0,0,0-1,2.83A78.12,78.12,0,0,0,21,54.27c-.14,1.24,0,2.58-.61,3.69-3.2,5.52-5.83,11.36-9.19,16.81A129,129,0,0,0,2.38,90.5,25.58,25.58,0,0,0,.13,103.66c.49,4.6,3.11,8,6.6,10.85a2,2,0,0,1,.7,2.54,25.93,25.93,0,0,0-1.33,6c-.45,2.19-.48,4.44-.92,6.63a20.69,20.69,0,0,0,.31,6c.26.46.32,1.24,1.1,1s.86-.84.7-1.51a3.5,3.5,0,0,1,0-1.33,2.14,2.14,0,0,0-.27-.06c-.54-.66-.28-1.43-.23-2.13a66,66,0,0,1,2.45-14.56h0c.51-.56.92-.12,1.38.11a37.27,37.27,0,0,0,11.56,3.68,13.76,13.76,0,0,0,2.77.43c8.55.42,17.09,1,25.67.83a26.78,26.78,0,0,1,5,.27,34.35,34.35,0,0,1,7.87,1.89,11,11,0,0,0,6.9,0c2.29-1.45,3.25-3.44,2.51-6.15a13.32,13.32,0,0,0-2.72-5.25A48.71,48.71,0,0,0,51.79,99.73c-.78-.47-1.77-.39-2.48-1a11.49,11.49,0,0,1-1.93-.54v0a33.14,33.14,0,0,0-7.58-1.55c-6.06-.87-12-.07-17.92,1.18-1.95.41-3.87.92-5.78,1.46-.54.15-1.14.54-.83,1.27s.78.46,1.34.32c2.19-.53,4.39-1,6.58-1.5a49.11,49.11,0,0,1,15.93-1,45.79,45.79,0,0,1,24.3,10.49,33.55,33.55,0,0,1,4.61,4.3,5.47,5.47,0,0,1,1,.93,9.37,9.37,0,0,1,1,1.5l.18.31c.07.12.14.23.2.35v0c.08.14.16.29.25.43a3.73,3.73,0,0,1,.16.35l0,0a3.1,3.1,0,0,1,.53,1.56,2.91,2.91,0,0,1,0,.72,3.71,3.71,0,0,1-.15,1.15,3.12,3.12,0,0,1-.29,1,2.88,2.88,0,0,1-1.3,1.19,4.58,4.58,0,0,1-1.81.4,4,4,0,0,1-1.58,0c-.56-.1-1.09-.3-1.63-.43a6.47,6.47,0,0,1-1.23-.37c-.8-.07-1.43-.52-2.15-.49-1.28-.71-2.82-.29-4.11-.94a47.45,47.45,0,0,0-7.9-.61q-10.92-.18-21.82-.38a6.54,6.54,0,0,1-2.72-.53h0a32.79,32.79,0,0,1-15.56-5.25c-6.41-4.27-9.1-11.52-6.5-18.74.53-1.47,1.18-2.9,1.57-4.41h0a2.65,2.65,0,0,0,.54-.66,7.13,7.13,0,0,1,.57-1.18,1.13,1.13,0,0,0-.11-.66C8.23,82.8,11.76,77.51,15,72c.47-.81.51-1.82,1.25-2.48h0l2.46-4.47c.56-.44.55-1.31,1.3-1.76.45,1.07-.16,1.91-.31,2.8s-.51,1.89.7,2.41c.95-.14,1.07-.91,1.2-1.63.91-5.16.91-10.41,1.61-15.6a19,19,0,0,1,.92-4.15c.52-1.78,1.05-3.56,1.57-5.35.47-.78.35-1.78.92-2.53,2-5,4.15-9.8,6.5-14.58.26-.53.63-1.06-.09-1.47s-1,.18-1.33.68c-.48.87-.92,1.76-1.41,2.62-.23.39-.46.4-.52-.12-.52-1.33-.25-2.84-.95-4.13-1-4.15-1.4-8.41-2.17-12.6-.62-2.08-.52-4.24-.81-6.35-.15-1.17.31-1.57,1.49-1.55,3.15.05,6.29.29,9.44.18a1.2,1.2,0,0,1,.9.16,83.37,83.37,0,0,1,13.82,1.6c.49.22,1.11.2,1.44.75-.34.56-.94.57-1.45.76-.72.38-2.09.41-1.58,1.63s1.43.24,2.17,0c.2-.06.38-.15.58-.23C56.83,4.89,61.08,3.26,65.7,3A43.09,43.09,0,0,1,76,3.68a28.51,28.51,0,0,1,3.49.93L83,5.9c1.61.58,3.22,1.17,4.84,1.72a1.09,1.09,0,0,0,1.3-.23A.74.74,0,0,0,89.19,6.37Z"/><path class="cls-6" d="M71.05,115.48a4.94,4.94,0,0,0,.87,1.65.41.41,0,0,0,0,.08l.18-.25c.09-.09.81-1,1.11-1.3a13.86,13.86,0,0,0-.93-1.64C72,114.41,71.47,115,71.05,115.48Z"/><path class="cls-7" d="M22.07,55.75c1.25,2.23,1.34,5,2.89,7.08a10.94,10.94,0,0,0,2.85,2.43,71,71,0,0,0,20,9.11"/><path class="cls-7" d="M117.37,58.42a17.92,17.92,0,0,1-8.08,7.41,53.79,53.79,0,0,1-10.54,3.55L88.43,72.07"/><path class="cls-8" d="M96.29,39.66S96,30.83,87.51,30.4c-9.63-.49-9,9.51-9,9.51s2.66-1.33,8.31-1.18A50,50,0,0,1,96.29,39.66Z"/><path class="cls-8" d="M46.27,39.33s.4-8.82,8.9-9.14c9.63-.37,8.91,9.62,8.91,9.62s-2.65-1.36-8.31-1.28A49.61,49.61,0,0,0,46.27,39.33Z"/><path class="cls-9" d="M88,30.33c4.83,1.76,5.09,7.3,5.08,8.75a12.2,12.2,0,0,1,3,.88S96.78,30.54,88,30.33Z"/><path class="cls-9" d="M56,30.18c4.83,1.76,5.09,7.31,5.07,8.75a12.2,12.2,0,0,1,3,.88S64.76,30.4,56,30.18Z"/><path class="cls-6" d="M64.08,40.17a.33.33,0,0,1-.17,0s-2.66-1.32-8.13-1.24a50.15,50.15,0,0,0-9.43.79.34.34,0,0,1-.31-.07.36.36,0,0,1-.13-.29,12.42,12.42,0,0,1,1.3-4.6,8.81,8.81,0,0,1,7.95-4.89,8.49,8.49,0,0,1,6.75,2.34c2.83,2.92,2.54,7.48,2.52,7.67a.38.38,0,0,1-.18.29A.33.33,0,0,1,64.08,40.17Zm-7.82-2a21.21,21.21,0,0,1,7.47,1.11c0-1.24-.25-4.47-2.33-6.62a7.84,7.84,0,0,0-6.22-2.12A8.06,8.06,0,0,0,47.85,35a11.67,11.67,0,0,0-1.18,3.85,56.65,56.65,0,0,1,9.1-.71Z"/><path class="cls-6" d="M59.84,37.69a4.66,4.66,0,0,0-9.32,0,4.42,4.42,0,0,0,.13,1.1c1.37-.11,3.07-.2,5.12-.23a29.87,29.87,0,0,1,3.94.2A4.18,4.18,0,0,0,59.84,37.69Z"/><path class="cls-10" d="M55.62,35.91a1.51,1.51,0,1,1-1.51-1.5A1.52,1.52,0,0,1,55.62,35.91Z"/><path class="cls-6" d="M78.48,40.26a.27.27,0,0,1-.18,0,.34.34,0,0,1-.18-.28c0-.2-.25-4.75,2.62-7.64A8.53,8.53,0,0,1,87.53,30a8.81,8.81,0,0,1,7.87,5,12.42,12.42,0,0,1,1.25,4.62.37.37,0,0,1-.14.29.37.37,0,0,1-.31.07,49.22,49.22,0,0,0-9.42-.92c-5.47-.15-8.12,1.12-8.15,1.14A.4.4,0,0,1,78.48,40.26Zm8.36-9.52a7.55,7.55,0,0,0-5.59,2.05c-2.11,2.13-2.4,5.35-2.42,6.59a21.74,21.74,0,0,1,8-1,57.49,57.49,0,0,1,9.09.83,11.72,11.72,0,0,0-1.13-3.88,8.08,8.08,0,0,0-7.27-4.58Z"/><path class="cls-6" d="M82.74,37.84a4.66,4.66,0,0,1,9.32.12,4.42,4.42,0,0,1-.14,1.1c-1.38-.12-3.08-.24-5.13-.29a27.83,27.83,0,0,0-3.94.14A4.18,4.18,0,0,1,82.74,37.84Z"/><path class="cls-10" d="M87,36.12a1.51,1.51,0,1,0,1.52-1.49A1.5,1.5,0,0,0,87,36.12Z"/><line class="cls-11" x1="6.59" y1="136.66" x2="132.54" y2="136.66"/></g></g></svg>