<svg xmlns="http://www.w3.org/2000/svg" viewBox="0 0 159.64 134.86"><defs><style>.cls-1{fill:#f9f3e6;}.cls-1,.cls-12,.cls-13,.cls-6,.cls-7{stroke:#5e6696;stroke-miterlimit:10;}.cls-2{fill:#5e6696;}.cls-3{fill:#b38bcb;}.cls-4{fill:#df6cb8;}.cls-5{fill:#606797;}.cls-12,.cls-6,.cls-7,.cls-9{fill:none;}.cls-6,.cls-7{stroke-width:2px;}.cls-7{stroke-linecap:round;}.cls-8{fill:#e070ba;}.cls-10{fill:#efefef;}.cls-11{fill:#fff;}.cls-13{fill:#333;stroke-width:0.25px;}</style></defs><g id="Capa_2" data-name="Capa 2"><g id="Gato-2"><path class="cls-1" d="M154.44,134.34a36.31,36.31,0,0,0-1.39-14.76c-2.46-7.74-1.32-6-1.32-6s6.36-5.3,6.91-13S152.49,83,152.49,83s-9.62-14.51-10.26-15.84-5.68-8.48-5.68-8.48-1.71-10.78-3.11-14.11S126.36,28,126.36,28A58,58,0,0,0,130.26.72S110.09.21,100.58,4.48l-1.52.74S95.38,2.85,87.25,3,69.13,7.44,69.13,7.44,59.75,4.39,51.71,5.55s-8.38,1.13-8.38,1.13L53.78,28.42l.08,4.16L50.53,48s-.79,10.11-.63,12.67a90.47,90.47,0,0,0,2.18,11.63c.5,1.58,4.62,11.32,4.62,11.32s-7,.11-10.41-1.54S34.75,76,32.16,75.48s-9.86-2-17.1-1.27-11,3.8-11,3.8S1,80.55.79,83.76c0,0,16.15,4,18.54,5.52s23.11,15.31,25.35,15.8,10,1.57,10,1.57-9,22.26-8.79,26l.19,1.45Z"/><path class="cls-2" d="M156.8,89.21a129.24,129.24,0,0,0-9.48-15.35c-3.59-5.3-6.45-11-9.88-16.41-.69-1.08-.57-2.43-.76-3.66a79,79,0,0,0-2.57-10.51A15.45,15.45,0,0,0,133,40.49c-1.37-3.5-3-6.85-4.74-10.19a2,2,0,0,1-.22-1.62A63.26,63.26,0,0,0,130,18.56c.35-3.39.68-6.78,1.11-10.16,0-2,.46-4,.33-6.09S130.88,0,128.9,0A131.94,131.94,0,0,0,115,.85c-.51.06-1,.07-1.56.11-1.88.32-3.8.36-5.65.85a.55.55,0,0,1-.28,0,35.69,35.69,0,0,0-4.09,1.09,7.7,7.7,0,0,0-1.45.58c-2.45,1.53-4.77.1-7.08-.34A36.65,36.65,0,0,0,73.6,5.76c-1.86.77-3.53,1.3-5.49.39a13.79,13.79,0,0,0-3-.66A28.18,28.18,0,0,0,57.84,5a5.13,5.13,0,0,1-2,0c-4.15,0-8.23,1-12.37,1.14-1,.05-1.74.61-1.07,1.65,3.75,5.86,5.85,12.52,9.11,18.62,0,0,0,.11.06.14,3.07,2.9,1.57,6.17.81,9.41-.58,2.45-1.07,4.91-1.53,7.39l.56,7.48.06-.15a31.33,31.33,0,0,1,.92-5.2h0a10.8,10.8,0,0,1,.34-1.94h0c.28-1.75.76-3.47.91-5.24A8.43,8.43,0,0,1,54.33,35,93.2,93.2,0,0,1,58,24.7c.24-.52.3-1.09.56-1.61.45-1.28.89-2.56,1.36-3.84a2,2,0,0,0,0-1.8.77.77,0,0,0-1.21,0l0,0c-.79.6-.81,1.59-1.19,2.39a7.41,7.41,0,0,1-.56,1.44c-.84,1.84-1.32,3.84-2.46,5.86a82.68,82.68,0,0,1-4.39-8.86c-.8-1.46-1.34-3-2-4.52a3.68,3.68,0,0,0-1-1.54c-.55-.93-1.1-1.86-1.64-2.79-.81-1.61-.79-1.72.9-1.9,5.63-.58,11.26-1.2,16.93-.43.87.14,1.75.23,2.61.43.62.13,2.33-.24.7,1.24a.75.75,0,0,0,.06,1,1.09,1.09,0,0,0,1.31.18c1.6-.62,3.18-1.27,4.77-1.92l3.45-1.44a29.9,29.9,0,0,1,3.45-1.07A42.92,42.92,0,0,1,89.88,4.43c4.63.07,9,1.52,13.24,3.05.2.07.39.15.59.21.75.19,1.76,1,2.17-.1S105,6.37,104.23,6c-.51-.17-1.12-.15-1.48-.7.31-.56.93-.57,1.41-.8A81.73,81.73,0,0,1,117.9,2.34a1.2,1.2,0,0,1,.9-.2c3.15,0,6.27-.39,9.41-.57,1.18-.07,1.66.31,1.55,1.48-.19,2.13,0,4.28-.53,6.38-.6,4.22-.79,8.49-1.65,12.68-.64,1.31-.31,2.81-.78,4.16,0,.53-.27.53-.51.15-.53-.84-1-1.72-1.52-2.56-.3-.49-.64-1.07-1.35-.62s-.32,1,0,1.47c2.55,4.68,4.93,9.43,7.11,14.29.6.73.51,1.73,1,2.5l1.8,5.28a18.8,18.8,0,0,1,1.09,4.1c.92,5.15,1.13,10.41,2.26,15.52.16.72.31,1.48,1.26,1.58,1.2-.57.79-1.53.61-2.44s-.84-1.69-.43-2.78c.77.41.79,1.29,1.37,1.7.88,1.46,1.77,2.91,2.65,4.36h0c.76.64.85,1.64,1.35,2.43,3.41,5.37,7.16,10.51,10.39,16a1.1,1.1,0,0,0-.07.66,8.55,8.55,0,0,1,.61,1.16,2.63,2.63,0,0,0,.57.63h0c.46,1.49,1.17,2.89,1.76,4.33,2.9,7.11.51,14.47-5.71,19a32.62,32.62,0,0,1-15.33,5.89h0a6.49,6.49,0,0,1-2.69.65c-7.26.45-14.52.86-21.79,1.29a47.5,47.5,0,0,0-7.87.94c-1.26.71-2.81.35-4.07,1.11-.89,0-1.61.75-2.73.59a23.23,23.23,0,0,1,3.43-5.15c.64-.83,1.4-1.56,2.1-2.34.41-.45.78-1,.26-1.51s-1-.1-1.49.28A34.65,34.65,0,0,0,94.59,123a2.34,2.34,0,0,1-2.94,1.28c-1.2-.27-1.3-.82-.83-1.77A27.3,27.3,0,0,1,96,115.26c.19-.19.41-.34.59-.52.45-.46.69-1,.17-1.51s-1-.19-1.37.18a19.79,19.79,0,0,0-3,3.21l-2.67,3.63c-.7-.52-.11-1,0-1.57a5.25,5.25,0,0,0,.8-1.71,25,25,0,0,1,6-7c6.87-6,14.73-10.15,23.85-11.49a48.81,48.81,0,0,1,16,.37c2.22.41,4.44.78,6.64,1.23.56.11,1.1.23,1.33-.39s-.34-1.1-.88-1.23c-1.93-.45-3.88-.89-5.84-1.22-6-1-11.94-1.54-18-.42a33.5,33.5,0,0,0-7.52,1.86l0,0a11.44,11.44,0,0,1-1.9.63c-.69.65-1.69.62-2.44,1.12A48.5,48.5,0,0,0,90,114.37a13.47,13.47,0,0,0-2.5,5.36c-.62,2.74.42,4.68,2.77,6a11.08,11.08,0,0,0,6.9-.26A33.4,33.4,0,0,1,105,123.3a26.72,26.72,0,0,1,5-.48c8.57-.19,17.08-1.13,25.6-1.91a13.75,13.75,0,0,0,2.76-.54,37.31,37.31,0,0,0,11.39-4.16c.45-.25.84-.7,1.37-.17h0a66.21,66.21,0,0,1,3.07,14.45c.07.7.36,1.46-.15,2.13l-.27.08a3.26,3.26,0,0,1,.05,1.32,1.68,1.68,0,0,0,.05.84c.54,0,1.09,0,1.63-.08a2.83,2.83,0,0,1,.15-.35,21,21,0,0,0,.06-6c-.53-2.18-.66-4.43-1.2-6.6a26.62,26.62,0,0,0-1.57-5.9,2,2,0,0,1,.59-2.57c3.36-2.94,5.84-6.5,6.13-11.11A25.52,25.52,0,0,0,156.8,89.21Z"/><path class="cls-2" d="M63.16,82.22c6.48,3,13.41,2.64,20.24,2.44a81.5,81.5,0,0,0,11.71-1.24A60.49,60.49,0,0,0,112,78.14c1.46-.73,1.47-1,.09-1.94a108.27,108.27,0,0,0-11.24-6.63c-.35-.34-.86-.37-1.27-.59a56.44,56.44,0,0,0-7.42-3.4c-.68-.27-1.17-.63-.85-1.37s.94-.52,1.51-.3c.19.07.38.17.57.26a99,99,0,0,1,20.75,11.38,1.45,1.45,0,0,0,2,.07,31.51,31.51,0,0,0,3.25-2.73c1.24-1.14,1.22-1.27-.36-2-3.92-1.77-8-3.23-12-4.72-.77-.55-1.75-.48-2.58-.85h-.14l-.14,0a7.33,7.33,0,0,0-1.94-.52l-.62-.32A20,20,0,0,0,98.69,64c-.48-.25-1-.51-.62-1.19s.75-.7,1.42-.55a101.83,101.83,0,0,1,15.38,5,88.2,88.2,0,0,1,12.34,5.87c.56.32,1.37.68.82,1.55-.46.72-1.1.31-1.66,0-1.11-.6-2.22-1.19-3.31-1.8a1,1,0,0,0-1.54.29,14.22,14.22,0,0,1-3.68,3.36c-1,.54-1.2,1.09-.17,1.85a15,15,0,0,1,1.84,1.73c.36.38.68.85.19,1.37s-1,.25-1.38-.1c-.8-.69-1.58-1.4-2.31-2.14a1.3,1.3,0,0,0-1.9-.27,43.61,43.61,0,0,1-11.47,4.63,94.38,94.38,0,0,1-29.95,2.73,28.54,28.54,0,0,1-15.6-5.61s5.43,1.89,3.39,1a45.08,45.08,0,0,1-6-4l-1.31-3.75.36,0C55.68,77.84,59.11,80.34,63.16,82.22Z"/><path class="cls-3" d="M154.43,87c-3.23-5.48-7-10.63-10.4-16-.5-.79-.59-1.8-1.35-2.44.79,3.2-1,5.86-1.79,8.74a33,33,0,0,0-1.08,3.91,9.66,9.66,0,0,0,3.38,9.13c2.13,1.78,4.16,3.65,5.29,6.3a7.45,7.45,0,0,0,1.27,1.78c.72.83,1.5,1.78,2.75,1.45A3.73,3.73,0,0,0,155,97.4a8.48,8.48,0,0,0,.42-3.87c-.24-1.43-.41-2.87-.53-4.31C154.9,88.43,154,87.81,154.43,87Z"/><path class="cls-4" d="M124.5,18.19a45.26,45.26,0,0,0,.35-6.89c-.24-4.79-1-4.55-5-5.14a30.05,30.05,0,0,0-10.31.34c-1.64.34-2.12,1.23-1.21,2.65a23.85,23.85,0,0,0,3.87,4.52c2.71,2.46,5.24,5.15,8.42,7,1,.58,2,1.31,3,0C124.27,20,124,19,124.5,18.19Z"/><path class="cls-3" d="M111.78,120.57q10.89-.63,21.78-1.28a6.86,6.86,0,0,0,2.7-.65,30.34,30.34,0,0,0-5.3.45c-2.12.16-2.6-.17-3.26-2.26s-1.17-4.13-1.9-6.14c-.67-1.85-1.4-3.74-3.41-4.67a2.41,2.41,0,0,0-3.12.5,39.52,39.52,0,0,0-6.85,9.1A5.88,5.88,0,0,0,111.78,120.57Z"/><path class="cls-3" d="M50.38,121.12c-.36-.77.08-1.45.3-2.12a66.17,66.17,0,0,1,6-13.5c-1.12,3.12-.52,6.16.39,9.2.85,2.78,2.28,5.4,2.47,8.38a2.91,2.91,0,0,1,0,.31c-.05,1.49.21,3.16-1.46,4s-2.64-.76-3.71-1.61a17.32,17.32,0,0,1-2-2.19C51.59,122.87,51.51,121.56,50.38,121.12Z"/><path class="cls-4" d="M61.05,9.51A27.55,27.55,0,0,0,48.8,10c-.91.92-.31,1.89,0,2.76a31.2,31.2,0,0,0,1.53,3.45A25.29,25.29,0,0,0,52.79,20c1.32,1.61,2.05,1.62,3.44.06a5.59,5.59,0,0,1,1.6-1.89,1.77,1.77,0,0,0,.67-.79v-.22l.36-.91a15.68,15.68,0,0,0,1.46-2l1.19-1.92c.27-.71,1.06-1.32.45-2.21A4.62,4.62,0,0,0,61.05,9.51Z"/><path class="cls-3" d="M22.7,91.35c4.32,2.92,4.85,3.22,7.94,5.14C35.09,99.91,40,103.62,44.9,105c-1-2.92-2-7.76-3.19-10.63a58.2,58.2,0,0,0-3.09-6A2.26,2.26,0,0,0,36,87.21a7.55,7.55,0,0,1-3.64.18,8,8,0,0,1-1.81-1.16C29,85,27.51,83.69,26,82.52c-2.07-1.58-3.2-1-3.19,1.54a14.09,14.09,0,0,0,.92,4.16C23.92,88.93,23.24,90.6,22.7,91.35Z"/><path class="cls-5" d="M125.5,59.19l-4.74-.76a123.51,123.51,0,0,0-12.47-.62c-3.71.07-7.42.22-11.13.5-1.61.12-2.36.71-2.31,1.86a.66.66,0,0,0,.16.26c2.1.15,4.09-.59,6.18-.66,8.07-.23,16.12-.37,24.07,1.32a30.75,30.75,0,0,1,5.39,1.64c.63.26,1.15.28,1.42-.42s-.25-1-.74-1.19c-1-.41-2-.75-2.93-1.11C127.5,59.47,126.43,59.58,125.5,59.19Z"/><path class="cls-6" d="M52,42.9s-5.86,18.88,2.84,35.53"/><path class="cls-7" d="M53.15,58.94S35.39,49.46,33.52,47.29"/><path class="cls-7" d="M53.75,64.28s-17.37-5.52-19.29-7"/><path class="cls-7" d="M53.87,68.54S40,72.49,38.6,73.1"/><path class="cls-2" d="M57.09,80.72S54.37,79.56,54,78.87s.53-1,.53-1l3.1,1.4Z"/><path class="cls-2" d="M57.09,80.72a10.7,10.7,0,0,0,3.1,1.37c1,.06,1.25-.25,1.25-.25s-1.06-.6-1.12-.62-1.78-.84-1.85-.9l-.84-.53s-.46-.11-.5-.05-.26.63-.26.63Z"/><path class="cls-8" d="M75.53,60.54c.49-.12,1-.43,1.47,0,.12-.94,1-1.27,1.5-2s1-1.14.63-1.81-1.24-.62-1.84-.52a27.71,27.71,0,0,1-3.27.36c-.4,0-.89,0-1.07.48a1.18,1.18,0,0,0,.34,1.29C74,59.09,74.78,59.81,75.53,60.54Z"/><path class="cls-6" d="M54.76,77.39c-.56,1,1.57,4.14,2.16,6.69-5.7,1.52-11.27-2.24-16.51-4.94a43.14,43.14,0,0,0-33-2.52c-2.85.95-7.24,5-6.29,7.85,4.47,1.2,7.94,1.91,12.4,3.1a46.78,46.78,0,0,1,5.38,2,47.83,47.83,0,0,1,5.95,3.37c9.37,5.86,19.3,15.19,30.29,14"/><path class="cls-6" d="M56.8,101.07c-.53,3.28-2,6.15-3.14,9.21-2.65,7.42-8.14,16.13-7.24,24.22"/><circle class="cls-9" cx="63.49" cy="45.82" r="8.49" transform="matrix(0.94, -0.35, 0.35, 0.94, -11.96, 24.89)"/><circle class="cls-9" cx="91.41" cy="44.65" r="8.49" transform="translate(-8.69 26.51) rotate(-15.76)"/><path class="cls-10" d="M86.13,38a8.49,8.49,0,0,0,12.6,11,8.49,8.49,0,1,1-12.6-11Z"/><path class="cls-10" d="M58.21,39.17a8.5,8.5,0,0,0,12.6,11,8.49,8.49,0,1,1-12.6-11Z"/><path class="cls-2" d="M82.58,46.12c-.18-4.29,3.66-7.95,8.55-8.15s9,3.12,9.2,7.41-3.66,7.94-8.55,8.15S82.76,50.41,82.58,46.12Zm.78,0c.16,3.92,3.93,7,8.39,6.76s8-3.52,7.8-7.43-3.93-6.95-8.39-6.76S83.19,42.17,83.36,46.08Z"/><circle class="cls-2" cx="90.27" cy="45.14" r="4.12" transform="translate(-7.85 68.8) rotate(-40.12)"/><circle class="cls-11" cx="92.78" cy="45.78" r="1.13"/><path class="cls-2" d="M54.66,47.28c-.18-4.29,3.66-7.94,8.55-8.15s9,3.12,9.2,7.41-3.65,8-8.55,8.15S54.84,51.57,54.66,47.28Zm.78,0c.16,3.92,3.93,7,8.39,6.76s8-3.52,7.8-7.44-3.93-6.94-8.39-6.75S55.28,43.34,55.44,47.25Z"/><circle class="cls-2" cx="61.96" cy="46.32" r="4.12" transform="translate(-14.14 60.21) rotate(-47.13)"/><circle class="cls-11" cx="64.85" cy="46.74" r="1.18"/><path class="cls-12" d="M3.26,79.74s6.53-1.44,9.05-1.35"/><path class="cls-12" d="M1.43,82.33s7.29-1.66,10.88.71"/></g><g id="BOCA"><line class="cls-12" x1="76.29" y1="60.33" x2="76.52" y2="62.67"/><path class="cls-13" d="M79.37,64.68A6.29,6.29,0,0,1,78,62.82a5.7,5.7,0,0,0-1.32-.1A5.81,5.81,0,0,0,75,63c-.07.14-.1.3-.17.42a7.76,7.76,0,0,1-.9,1.23,9.4,9.4,0,0,1-1.17,1c-.15.11-.31.19-.47.29,0,.07,0,.14,0,.22.08,1.82,2.16,3.21,4.65,3.1s4.35-1.6,4.36-3.36A8.78,8.78,0,0,1,79.37,64.68Z"/></g></g></svg>