<svg xmlns="http://www.w3.org/2000/svg" viewBox="0 0 310.98 138.29"><defs><style>.cls-1{fill:#5e6697;}.cls-2{fill:#5e6696;}.cls-3{fill:#b38bcb;}.cls-4{fill:#df6cb8;}.cls-5{fill:#606797;}.cls-6{fill:#616898;}.cls-7{fill:#e070ba;}</style></defs><g id="Capa_2" data-name="Capa 2"><g id="Capa_1-2" data-name="Capa 1"><path class="cls-1" d="M199.12,97.9H204v.91h-4.87Z"/><path class="cls-1" d="M216.42,98.41c0-2.33,1.42-3.72,3.31-3.72a2.85,2.85,0,0,1,2.05.89l-.71.79a1.83,1.83,0,0,0-1.34-.58c-1.18,0-2,1-2,2.58s.82,2.62,2,2.62a1.89,1.89,0,0,0,1.44-.7l.71.77a2.87,2.87,0,0,1-2.28,1C217.87,102.1,216.42,100.79,216.42,98.41Z"/><path class="cls-1" d="M225.83,94.82h1.27v6.08h3.35V102h-4.62Z"/><path class="cls-1" d="M233.74,98.36c0-2.35,1.15-3.67,2.81-3.67s2.82,1.32,2.82,3.67-1.16,3.74-2.82,3.74S233.74,100.76,233.74,98.36Zm4.32,0c0-1.64-.6-2.57-1.51-2.57s-1.5.93-1.5,2.57.59,2.63,1.5,2.63S238.06,100.05,238.06,98.36Z"/><path class="cls-1" d="M244.67,95.89h-2.26V94.82h5.78v1.07h-2.25V102h-1.27Z"/><path class="cls-1" d="M251.55,94.82h1.28v2.87h2.45V94.82h1.27V102h-1.27V98.8h-2.45V102h-1.28Z"/><path class="cls-1" d="M260.65,94.82h4.58v1.07h-3.31v1.83h2.81v1.07h-2.81v2.11h3.42V102h-4.69Z"/><path class="cls-1" d="M268.91,101.06l.74-.88a3,3,0,0,0,2,.81c.83,0,1.27-.36,1.27-.86s-.49-.81-1.19-1.1l-1-.43a2.07,2.07,0,0,1-1.53-1.9,2.22,2.22,0,0,1,2.49-2,3.32,3.32,0,0,1,2.29.91l-.65.8a2.58,2.58,0,0,0-1.7-.61c-.68,0-1.14.31-1.14.84s.57.76,1.22,1l.94.4a2,2,0,0,1,1.55,1.93c0,1.16-1,2.13-2.65,2.13A3.89,3.89,0,0,1,268.91,101.06Z"/><path class="cls-1" d="M286.62,97.9h4.87v.91h-4.87Z"/><path class="cls-2" d="M61.25,54.22a12.94,12.94,0,0,1-5-2.85c-3.72-3.79-3.55-8.57.42-12.51,6-5.9,14.67-3.74,17.16,4.29.26.83.51,1,1.3.66,4.32-1.75,8.5-1.6,12.42,1.1.93.64,1.13.06,1.48-.59a10.07,10.07,0,0,1,5.7-5.12c3.54-1.2,6.46-.06,9,2.47.4.32.64.81,1.12,1a5.78,5.78,0,0,0-.38-2.35h0c-.35-1.74-.9-3.43-1.13-5.19a8.57,8.57,0,0,0-.81-3.3,94.43,94.43,0,0,0-4.08-10.08c-.26-.5-.35-1.08-.62-1.58-.51-1.26-1-2.53-1.53-3.78a2,2,0,0,1,0-1.8.77.77,0,0,1,1.21,0h0c.82.56.87,1.55,1.29,2.34a7.33,7.33,0,0,0,.61,1.41c.92,1.8,1.49,3.78,2.71,5.75a83.52,83.52,0,0,0,4-9c.73-1.48,1.21-3.07,1.83-4.6a3.5,3.5,0,0,1,.93-1.57L110.35,6c.73-1.64.71-1.75-1-1.86-5.65-.35-11.3-.73-16.93.28-.86.17-1.74.3-2.59.53-.61.16-2.34-.14-.65,1.27a.74.74,0,0,1,0,1,1.09,1.09,0,0,1-1.3.23C86.25,6.93,84.64,6.34,83,5.76L79.52,4.47A28.51,28.51,0,0,0,76,3.54,43.09,43.09,0,0,0,65.7,2.86c-4.62.26-8.87,1.89-13.1,3.6-.2.08-.38.17-.58.23-.74.23-1.71,1.11-2.17,0s.86-1.25,1.58-1.63c.51-.19,1.11-.2,1.45-.76-.33-.55-1-.53-1.44-.75a83.37,83.37,0,0,0-13.82-1.6,1.2,1.2,0,0,0-.9-.16c-3.15.11-6.29-.13-9.44-.18-1.18,0-1.64.38-1.49,1.55.29,2.11.19,4.27.81,6.35.77,4.19,1.14,8.45,2.17,12.6.7,1.29.43,2.8.95,4.13.06.52.29.51.52.12.49-.86.93-1.75,1.41-2.62.29-.5.6-1.09,1.33-.68s.35.94.09,1.47c-2.35,4.78-4.54,9.63-6.5,14.58-.57.75-.45,1.75-.92,2.53L24.08,47a19,19,0,0,0-.92,4.15c-.7,5.19-.7,10.44-1.61,15.6-.13.72-.25,1.49-1.2,1.63-1.21-.52-.85-1.49-.7-2.41s.76-1.73.31-2.8c-.75.45-.74,1.32-1.3,1.76L16.2,69.38c-.81,3.33-2.89,6-4.64,8.83-2.05,3.34-4,6.76-5.94,10.15-.26.59-.64,1.13-.85,1.75a2.65,2.65,0,0,1-.54.66h0c-.39,1.51-1,2.94-1.57,4.41-2.6,7.22.09,14.47,6.5,18.74a32.79,32.79,0,0,0,15.56,5.25,45.3,45.3,0,0,0,9.17.15c4.57-.33,9.17.44,13.77.26a2.06,2.06,0,0,1,1.6.5,47.45,47.45,0,0,1,7.9.61c1.29.65,2.83.23,4.11.93.9,0,1.65.69,2.76.48a23.2,23.2,0,0,0-3.65-5c-.66-.8-1.46-1.5-2.19-2.25-.43-.43-.82-.94-.32-1.5s1-.14,1.5.23A34.83,34.83,0,0,1,66,121.51a2.35,2.35,0,0,0,3,1.16c1.19-.32,1.26-.88.75-1.8a27.1,27.1,0,0,0-5.48-7c-.19-.18-.41-.32-.61-.5-.46-.43-.72-.95-.23-1.5s.94-.23,1.38.12a20.26,20.26,0,0,1,3.12,3.09l2.82,3.51c.68-.54.07-1,0-1.57a5.15,5.15,0,0,1-.88-1.67,24.78,24.78,0,0,0-6.33-6.7,45.79,45.79,0,0,0-24.3-10.49,49.11,49.11,0,0,0-15.93,1c-2.19.5-4.39,1-6.58,1.5-.56.14-1.09.28-1.34-.32s.29-1.12.83-1.27c1.91-.54,3.83-1.06,5.78-1.47,5.91-1.24,11.86-2,17.92-1.17A33.14,33.14,0,0,1,47.39,98v0a11.49,11.49,0,0,0,1.93.54c.71.63,1.7.55,2.48,1a48.71,48.71,0,0,1,18.36,13.12A13.32,13.32,0,0,1,72.87,118c.74,2.71-.22,4.69-2.51,6.15a11,11,0,0,1-6.9,0,34.35,34.35,0,0,0-7.87-1.89,26.78,26.78,0,0,0-5-.27c-8.58.17-17.12-.41-25.67-.83a13.76,13.76,0,0,1-2.77-.43A37.27,37.27,0,0,1,10.62,117c-.46-.23-.87-.67-1.38-.11-.5,4.55-1.64,9-2,13.57a17.12,17.12,0,0,0,0,3.12,3.61,3.61,0,0,0,0,1.39c.16.67,0,1.32-.7,1.51s-.84-.57-1.1-1a20.69,20.69,0,0,1-.31-6c.44-2.19.47-4.44.92-6.63a25.93,25.93,0,0,1,1.33-6,2,2,0,0,0-.7-2.54c-3.49-2.8-6.11-6.25-6.6-10.85A25.58,25.58,0,0,1,2.38,90.36a129,129,0,0,1,8.83-15.73c3.36-5.45,6-11.29,9.19-16.81.64-1.11.47-2.45.61-3.69a78.12,78.12,0,0,1,2.12-10.61,15.73,15.73,0,0,1,1-2.83A111.78,111.78,0,0,1,28.4,30.31a2,2,0,0,0,.15-1.63,63.66,63.66,0,0,1-2.3-10c-.48-3.37-1-6.74-1.53-10.1-.12-2-.63-4-.58-6.07S24.55.11,26.53.07A132,132,0,0,1,40.45.33c.52,0,1,0,1.57,0,1.89.24,3.81.2,5.68.62A.88.88,0,0,0,48,1a34.21,34.21,0,0,1,4.13.92,9.23,9.23,0,0,1,1.48.51c2.5,1.44,4.76-.1,7.06-.63A36.74,36.74,0,0,1,82,3.51c1.89.7,3.57,1.15,5.49.16a13,13,0,0,1,3-.78,27.56,27.56,0,0,1,7.18-.8,4.93,4.93,0,0,0,2-.12c4.16-.14,8.26.6,12.41.62,1,0,1.76.54,1.14,1.61-3.5,6-5.32,12.75-8.33,19,0,0,0,.12,0,.15-3,3-1.31,6.23-.41,9.44.67,2.42,1.27,4.86,1.83,7.31.23,1,.58.91,1.23.36.85-.71,1.36-2.21,2.61-2s1.59,1.6,2.24,2.52c4.33,6.11,10.18,10.7,15.62,15.69a44.58,44.58,0,0,1,6.74,7.65,16.82,16.82,0,0,1,2.82,9,43.49,43.49,0,0,1-6,23.91c-3.42,6-8.5,10.45-14.12,14.32-1.12.77-2.74,1.26-3.28,2.32s.69,2.48,1.11,3.75a74.84,74.84,0,0,1,3.13,12,10.34,10.34,0,0,1,.17,1.56.81.81,0,0,1-1.61.18c-.22-.92-.41-1.84-.62-2.76-.64-1.4-.34-3-.93-4.41a78.86,78.86,0,0,0-6.52-16.29c-2.35-4.51-4.81-9-6.22-13.89a3.39,3.39,0,0,1-.15-.45c-.08-.61-.34-1.34.58-1.51s1.08.54,1.22,1.15a37.36,37.36,0,0,0,2,5.46,11.36,11.36,0,0,0,.64,1.58c1.86,3.63,3.74,7.25,5.55,10.91.47.94.84,1.11,1.71.45,1.51-1.14,3.1-2.15,4.65-3.22.89-1.54,2.41-2.47,3.69-3.61a37.51,37.51,0,0,0,10.36-15.36A7.39,7.39,0,0,1,134,87.29a53,53,0,0,0,2-10.47,18.75,18.75,0,0,0-5.62-15.1C127,58.29,123.61,55,120,51.89a70.07,70.07,0,0,1-9.13-10c-.33-.42-.59-1.55-1.48-.78s-2.08,1.34-1.17,2.81c2.21,3.57,4.23,7.25,6.76,10.6a3.1,3.1,0,0,1,.48.79,1,1,0,0,1-.28,1.15c-.45.35-.8,0-1.09-.28A32.51,32.51,0,0,1,110.38,51c-1.07-1.69-2.09-3.4-3.12-5.1-.48-.79-.8-1-1.33,0-1.13,2.18-.57,4.16.42,6.15a25.48,25.48,0,0,0,4.27,6.37c.44.47,1.1,1,.32,1.72s-1.21-.14-1.66-.57A22.38,22.38,0,0,1,106,55.17c-.21-.15-.25-.7-.6-.43a.71.71,0,0,0,0,1A24,24,0,0,0,111,68.31a32.5,32.5,0,0,1,5.24,7.34c.27.57.85,1.31,0,1.77s-1.2-.46-1.54-1-.79-1.47-1.18-2.2c-.38-.92-.77-.9-1.18,0a8.54,8.54,0,0,1-5.39,3.23,2.31,2.31,0,0,1-1.84-.2c-1.4-1.11-2.29-.39-3.44.54A28.64,28.64,0,0,1,86.29,84a94.93,94.93,0,0,1-30-1.48A43.52,43.52,0,0,1,44.6,78.34a1.31,1.31,0,0,0-1.88.35c-.71.78-1.45,1.52-2.22,2.24-.39.36-.85.67-1.37.16s-.22-1,.13-1.38A15,15,0,0,1,41,77.91c1-.81.72-1.34-.24-1.85A13.87,13.87,0,0,1,37,72.86a1,1,0,0,0-1.55-.23c-1.07.66-2.15,1.3-3.23,1.94-.55.33-1.18.77-1.67.06s.22-1.23.76-1.58a88.82,88.82,0,0,1,12.09-6.38,101.62,101.62,0,0,1,15.15-5.62c.67-.17,1.12-.12,1.45.5s-.1.94-.58,1.21a18.89,18.89,0,0,0-2.86.6l-.61.34a7.57,7.57,0,0,0-1.91.6l-.14,0h-.14c-.82.41-1.79.38-2.55,1-4,1.66-7.93,3.29-11.77,5.21-1.54.78-1.56.9-.27,2a31.27,31.27,0,0,0,3.36,2.59,1.44,1.44,0,0,0,1.95-.15A99,99,0,0,1,64.7,62.69c.19-.09.37-.2.56-.28.56-.24,1.19-.43,1.52.24s-.12,1.1-.8,1.4a55.13,55.13,0,0,0-7.26,3.71c-.41.24-.91.28-1.25.64a109.48,109.48,0,0,0-10.95,7.09c-1.35,1-1.32,1.27.17,1.94A60.55,60.55,0,0,0,63.78,82a79.94,79.94,0,0,0,11.75.75c6.83-.09,13.76,0,20.12-3.29,4.46-2.29,8.16-5.31,10-10.16.67-1.75.52-2.13-1.24-2.8a28,28,0,0,1-2.8-1c-.64-.34-1.22-.81-1-1.58s1-.87,1.83-.56a25.59,25.59,0,0,1,3.31,1.32,2.23,2.23,0,0,0-2.2-1.86,19,19,0,0,0-2.82,0c-1,0-1.48-.32-1.55-1.29.76-1.73,2.41-1.15,3.7-1.3,1.07-.12,1.08-.56.85-1.33s-.75-.81-1.44-.44a15.65,15.65,0,0,1-3.27,1.83c-.66.17-1.39.51-1.78-.35s.2-1.33.81-1.66c1.47-.8,2.77-1.89,4.31-2.54.46-.2.87-.41.88-1,0-.3.1-.65-.16-.89s-.58-.08-.85.09a8.64,8.64,0,0,1-2.66.86c-2.73.13-5.43.14-7.89-1.4-1.52-1-2.95-2.13-3.25-3.85-.56-3.07-2.87-3.92-5.24-4.74a9.82,9.82,0,0,0-5.73,0c-1.9.5-3.34,1.22-3.92,3.62a7.86,7.86,0,0,1-5.74,5.73A13.69,13.69,0,0,1,61.25,54.22Z"/><path class="cls-3" d="M130.82,87.29a40.22,40.22,0,0,1-12.31,21.06c-.46-3.07-1.07-6.1-1.36-9.21a58.05,58.05,0,0,1-.12-6.72,2.29,2.29,0,0,1,1.78-2.32,7.46,7.46,0,0,0,3.29-1.56,7.83,7.83,0,0,0,1.05-1.88c.74-1.81,1.44-3.66,2.24-5.43,1.07-2.37,2.34-2.42,3.54-.15a14.11,14.11,0,0,1,1.17,4.09C130.23,85.91,130,86.89,130.82,87.29Z"/><path class="cls-3" d="M5.23,88.27c3-5.61,6.53-10.9,9.72-16.41.47-.81.51-1.82,1.25-2.48-.66,3.22,1.29,5.8,2.15,8.65A32.27,32.27,0,0,1,19.6,81.9a9.66,9.66,0,0,1-3,9.25c-2.05,1.87-4,3.82-5,6.52a7.14,7.14,0,0,1-1.2,1.83c-.68.86-1.42,1.85-2.68,1.57a3.8,3.8,0,0,1-2.57-2.34,8.41,8.41,0,0,1-.57-3.84c.17-1.44.28-2.89.34-4.34C4.82,89.77,5.65,89.11,5.23,88.27Z"/><path class="cls-4" d="M32.27,18.31a44.87,44.87,0,0,1-.64-6.86c0-4.8.79-4.59,4.8-5.35A30,30,0,0,1,46.75,6c1.65.26,2.17,1.13,1.32,2.58a22.81,22.81,0,0,1-3.68,4.68c-2.6,2.58-5,5.37-8.11,7.4-1,.62-2,1.4-3.06.15C32.57,20.12,32.79,19.07,32.27,18.31Z"/><path class="cls-3" d="M49.25,120.08q-10.92-.18-21.82-.38a6.54,6.54,0,0,1-2.72-.53,31.38,31.38,0,0,1,5.31.23c2.13.07,2.59-.28,3.16-2.39s1-4.18,1.64-6.21S36.07,107,38,106a2.42,2.42,0,0,1,3.14.37,39.25,39.25,0,0,1,7.23,8.81A5.93,5.93,0,0,1,49.25,120.08Z"/><path class="cls-3" d="M7,133.62c-.54-.66-.28-1.43-.23-2.13a66,66,0,0,1,2.45-14.56c-.31,3.3,1,6.1,2.66,8.82,1.5,2.49,3.54,4.67,4.46,7.5a2.65,2.65,0,0,1,.11.3c.33,1.45,1,3-.43,4.22s-2.74-.09-4-.65a17,17,0,0,1-2.47-1.63C8.62,135,8.22,133.76,7,133.62Z"/><path class="cls-4" d="M95.29,7a27.47,27.47,0,0,1,12.27,0c.94.87.39,1.87.12,2.75a30.12,30.12,0,0,1-1.39,3.51,25,25,0,0,1-2.3,3.85c-1.26,1.67-2,1.7-3.44.21a5.63,5.63,0,0,0-1.67-1.83,1.74,1.74,0,0,1-.71-.76,1.48,1.48,0,0,1,0-.21l-.4-.9a16.71,16.71,0,0,1-1.54-1.91L95,9.82c-.3-.7-1.11-1.27-.54-2.18A4.6,4.6,0,0,1,95.29,7Z"/><path class="cls-5" d="M34.18,59.29l4.7-1c4.13-.49,8.25-1,12.43-1.13,3.72-.08,7.43-.09,11.14,0,1.62.06,2.4.62,2.39,1.76,0,.09-.09.18-.15.27-2.09.24-4.11-.42-6.2-.4-8.07.11-16.12.3-24,2.32A30.54,30.54,0,0,0,29.18,63c-.61.28-1.14.33-1.43-.36s.21-1,.68-1.23c.95-.44,1.93-.82,2.89-1.23C32.19,59.65,33.27,59.71,34.18,59.29Z"/><path class="cls-6" d="M91.46,62.4c-3.86,1.26-4.56,1-7.78-3-2.05,3.2-4.72,4.84-8.57,3.34-.6-.5-1.5-.89-.62-1.87,1.48,0,2.87,1.11,4.4.3a5,5,0,0,0,2.77-2.3c.49-.5.44-1.21.71-1.8l.45-1.33c.48-.79,1-.57,1.47,0,.45,1.05.81,2.15,1.35,3.15,1.37,2.51,3.12,2.92,5.56,1.39.62-.54,1-.15,1.36.35A.94.94,0,0,1,92.27,62C92,62.15,91.72,62.24,91.46,62.4Z"/><path class="cls-7" d="M84.29,55.73c-.49-.11-1-.4-1.47,0-.16-.93-1.09-1.22-1.57-1.88s-1.06-1.09-.71-1.78,1.21-.68,1.82-.6a30,30,0,0,0,3.28.23c.4,0,.89-.07,1.09.42a1.21,1.21,0,0,1-.28,1.31Z"/><path class="cls-2" d="M180.1,59.05c-.48,2.63-.85,5.28-1.47,7.87-.48,2-1.66,2.7-3.25,2.33a3.16,3.16,0,0,1-2.58-3.72c.24-1.66.56-3.31.9-5q1.44-6.82,2.93-13.66a3.44,3.44,0,0,1,3.14-2.85c1.54-.09,2.34.89,2.91,2.19,1,2.23,2.06,4.44,3.2,6.89.91-1.8.79-3.56,1.12-5.2.44-2.2.66-4.45,1-6.68s1.21-3.06,2.94-2.86a3.26,3.26,0,0,1,3,3.72q-.9,6.61-2,13.2c-.44,2.74-1,5.47-1.5,8.19-.43,2.2-1.3,3-3.11,3.11a2.5,2.5,0,0,1-2.67-1.52c-1-2.23-2-4.48-3-6.72-.23-.45-.26-1-.74-1.4C180.14,57.5,180.38,58.39,180.1,59.05Z"/><path class="cls-2" d="M242.75,40.22c2,.12,4,.21,6,.37a3.47,3.47,0,0,1,3.28,2.7,2.56,2.56,0,0,1-2.6,3.36,23.83,23.83,0,0,1-2.67-.1c-1.08-.11-1.5.32-1.52,1.41-.06,3.19-.2,6.38-.32,9.58-.09,2.19-.18,4.39-.3,6.59a3.08,3.08,0,0,1-3.32,3c-1.78-.05-2.77-1.12-2.71-3.11.17-5.28.35-10.57.62-15.85.07-1.35-.34-1.83-1.66-1.6a14.06,14.06,0,0,1-1.72.1c-1.82.05-2.64-.53-3-2.09a3.14,3.14,0,0,1,2-3.65,21.66,21.66,0,0,1,5.9-.63c.68,0,1.36,0,2.05,0Z"/><path class="cls-2" d="M269.06,59.23c.17-3.34.34-7.11.55-10.88.11-1.9.07-2-1.79-1.91l-1.41.05c-2.05,0-3.08-.7-3.26-2.35a3.33,3.33,0,0,1,2.75-3.65,54.55,54.55,0,0,1,13.81,0,3.33,3.33,0,0,1,2.73,3.66c-.2,1.69-1.09,2.37-3.08,2.34-3.66,0-3.62,0-3.73,3.63-.14,4.56-.34,9.12-.57,13.67a3.24,3.24,0,0,1-4,3.09,2.39,2.39,0,0,1-2-2.48c0-.78,0-1.57,0-2.36Z"/><path class="cls-1" d="M209.4,63.29c.49-6.61.64-13.42,1.48-20.18a3.1,3.1,0,0,1,3.53-3c1.73.15,2.67,1.24,2.46,3.3-.72,7.24-1,14.51-1.47,21.77A3.06,3.06,0,0,1,212,68a2.71,2.71,0,0,1-2.6-3C209.39,64.51,209.4,64,209.4,63.29Z"/><path class="cls-2" d="M311,64.77c-.24-5.13-.42-10.26-.7-15.38-.16-3-.23-6-1.65-8.73a3,3,0,0,0-3.77-1.72c-2.79.71-4.5,2.78-6.07,5a37.14,37.14,0,0,0-5.11,11.24c-.27.83-.37,1.7-.61,2.54-.43,2.25-.9,4.5-1.28,6.76-.44,2.56.54,4.24,2.57,4.59s2.94-.69,3.41-3.5a21.51,21.51,0,0,0,.72-3.81c.13-.55.29-1.14.94-1,1.4.25,2.82,0,4.22.23.5.1,1,.13.9.79-.12,1.17.34,2.27.33,3.43a3.14,3.14,0,0,0,2,3.25,3.22,3.22,0,0,0,3.84-1.3A6.47,6.47,0,0,0,311,64.77ZM304.62,53.9c-3,.27-3.32-.13-2.08-2.83a13.81,13.81,0,0,1,2.77-4.4c.11,2.24.21,4.21.33,6.18C305.68,53.59,305.33,53.84,304.62,53.9Z"/></g></g></svg>