<?xml version="1.0" standalone="no"?>
<svg xmlns:xlink="http://www.w3.org/1999/xlink" id="wave" style="transform:rotate(0deg); transition: 0.3s" viewBox="0 0 1440 490" version="1.1" xmlns="http://www.w3.org/2000/svg"><defs><linearGradient id="sw-gradient-0" x1="0" x2="0" y1="1" y2="0"><stop stop-color="rgba(179, 139, 203, 1)" offset="0%"/><stop stop-color="rgba(251, 243, 227, 1)" offset="100%"/></linearGradient></defs><path style="transform:translate(0, 0px); opacity:1" fill="url(#sw-gradient-0)" d="M0,343L30,310.3C60,278,120,212,180,212.3C240,212,300,278,360,285.8C420,294,480,245,540,212.3C600,180,660,163,720,204.2C780,245,840,343,900,318.5C960,294,1020,147,1080,81.7C1140,16,1200,33,1260,89.8C1320,147,1380,245,1440,261.3C1500,278,1560,212,1620,179.7C1680,147,1740,147,1800,163.3C1860,180,1920,212,1980,245C2040,278,2100,310,2160,334.8C2220,359,2280,376,2340,318.5C2400,261,2460,131,2520,138.8C2580,147,2640,294,2700,310.3C2760,327,2820,212,2880,147C2940,82,3000,65,3060,89.8C3120,114,3180,180,3240,212.3C3300,245,3360,245,3420,220.5C3480,196,3540,147,3600,147C3660,147,3720,196,3780,228.7C3840,261,3900,278,3960,302.2C4020,327,4080,359,4140,326.7C4200,294,4260,196,4290,147L4320,98L4320,490L4290,490C4260,490,4200,490,4140,490C4080,490,4020,490,3960,490C3900,490,3840,490,3780,490C3720,490,3660,490,3600,490C3540,490,3480,490,3420,490C3360,490,3300,490,3240,490C3180,490,3120,490,3060,490C3000,490,2940,490,2880,490C2820,490,2760,490,2700,490C2640,490,2580,490,2520,490C2460,490,2400,490,2340,490C2280,490,2220,490,2160,490C2100,490,2040,490,1980,490C1920,490,1860,490,1800,490C1740,490,1680,490,1620,490C1560,490,1500,490,1440,490C1380,490,1320,490,1260,490C1200,490,1140,490,1080,490C1020,490,960,490,900,490C840,490,780,490,720,490C660,490,600,490,540,490C480,490,420,490,360,490C300,490,240,490,180,490C120,490,60,490,30,490L0,490Z"/><defs><linearGradient id="sw-gradient-1" x1="0" x2="0" y1="1" y2="0"><stop stop-color="rgba(251, 243, 227, 1)" offset="0%"/><stop stop-color="rgba(179, 139, 203, 1)" offset="100%"/></linearGradient></defs><path style="transform:translate(0, 50px); opacity:0.9" fill="url(#sw-gradient-1)" d="M0,196L30,171.5C60,147,120,98,180,81.7C240,65,300,82,360,147C420,212,480,327,540,326.7C600,327,660,212,720,171.5C780,131,840,163,900,220.5C960,278,1020,359,1080,383.8C1140,408,1200,376,1260,318.5C1320,261,1380,180,1440,122.5C1500,65,1560,33,1620,32.7C1680,33,1740,65,1800,65.3C1860,65,1920,33,1980,73.5C2040,114,2100,229,2160,253.2C2220,278,2280,212,2340,155.2C2400,98,2460,49,2520,65.3C2580,82,2640,163,2700,196C2760,229,2820,212,2880,196C2940,180,3000,163,3060,171.5C3120,180,3180,212,3240,196C3300,180,3360,114,3420,147C3480,180,3540,310,3600,343C3660,376,3720,310,3780,310.3C3840,310,3900,376,3960,367.5C4020,359,4080,278,4140,212.3C4200,147,4260,98,4290,73.5L4320,49L4320,490L4290,490C4260,490,4200,490,4140,490C4080,490,4020,490,3960,490C3900,490,3840,490,3780,490C3720,490,3660,490,3600,490C3540,490,3480,490,3420,490C3360,490,3300,490,3240,490C3180,490,3120,490,3060,490C3000,490,2940,490,2880,490C2820,490,2760,490,2700,490C2640,490,2580,490,2520,490C2460,490,2400,490,2340,490C2280,490,2220,490,2160,490C2100,490,2040,490,1980,490C1920,490,1860,490,1800,490C1740,490,1680,490,1620,490C1560,490,1500,490,1440,490C1380,490,1320,490,1260,490C1200,490,1140,490,1080,490C1020,490,960,490,900,490C840,490,780,490,720,490C660,490,600,490,540,490C480,490,420,490,360,490C300,490,240,490,180,490C120,490,60,490,30,490L0,490Z"/></svg>